<?xml version="1.0" standalone="no"?>
<!DOCTYPE svg PUBLIC "-//W3C//DTD SVG 20010904//EN"
 "http://www.w3.org/TR/2001/REC-SVG-20010904/DTD/svg10.dtd">
<svg version="1.0" xmlns="http://www.w3.org/2000/svg"
 width="1084.000000pt" height="1084.000000pt" viewBox="0 0 1084.000000 1084.000000"
 preserveAspectRatio="xMidYMid meet">
<metadata>
Created by potrace 1.14, written by Peter Selinger 2001-2017
</metadata>
<g transform="translate(0.000000,1084.000000) scale(0.100000,-0.100000)"
fill="#000000" stroke="none">
<path d="M924 10826 c-2 -6 -3 -2443 -1 -5416 l2 -5405 4495 0 4495 0 0 5415
0 5415 -4493 1 c-3325 1 -4495 -1 -4498 -10z m8972 -5407 l1 -5396 -4476 1
-4476 1 -1 5396 -1 5396 4476 -1 4476 -1 1 -5396z"/>
<path d="M2781 10643 c-1 -7 -8 -10 -16 -7 -8 4 -15 1 -15 -5 0 -6 -7 -8 -17
-4 -12 5 -14 3 -8 -7 6 -10 4 -12 -8 -7 -27 10 -33 -46 -8 -91 6 -12 9 -27 6
-32 -3 -5 3 -13 12 -19 10 -6 14 -11 9 -11 -5 0 1 -9 14 -20 13 -11 20 -20 16
-20 -4 0 0 -7 8 -16 9 -8 14 -20 11 -25 -4 -5 -1 -9 5 -9 6 0 16 -13 21 -29 6
-16 17 -32 25 -35 7 -3 11 -12 8 -21 -4 -8 -1 -15 7 -15 7 0 10 -3 6 -6 -3 -3
3 -15 14 -27 10 -11 19 -27 19 -34 0 -7 5 -13 11 -13 5 0 7 -4 4 -10 -3 -5 -1
-10 5 -10 7 0 10 -6 8 -12 -3 -7 4 -21 13 -32 10 -10 16 -23 13 -28 -3 -4 0
-8 7 -8 7 0 9 -3 6 -7 -4 -3 1 -12 11 -20 10 -9 11 -11 2 -7 -13 7 -13 5 -1
-9 7 -9 10 -17 6 -17 -4 0 3 -9 16 -21 13 -11 17 -17 9 -13 -12 6 -13 4 -2 -7
6 -7 12 -21 12 -31 0 -10 5 -18 10 -18 6 0 10 -6 10 -14 0 -8 5 -16 10 -18 6
-2 -3 -19 -19 -38 -17 -19 -30 -42 -31 -51 0 -9 -8 -27 -18 -40 -10 -13 -24
-36 -31 -51 -8 -16 -18 -28 -23 -28 -4 0 -8 -5 -8 -12 0 -6 -26 -37 -57 -67
-32 -30 -52 -51 -44 -46 10 5 12 4 7 -3 -4 -7 -14 -12 -22 -12 -8 0 -12 -5 -9
-10 3 -6 -5 -14 -19 -20 -14 -5 -32 -23 -41 -40 -8 -16 -18 -30 -21 -30 -3 0
-2 6 2 13 4 6 -13 -9 -38 -35 -25 -26 -48 -44 -52 -41 -3 4 -6 1 -6 -5 0 -7
-18 -19 -41 -28 -26 -11 -38 -21 -35 -30 3 -8 1 -14 -4 -14 -5 0 -6 -7 -3 -17
5 -11 3 -14 -6 -8 -10 6 -11 3 -2 -13 6 -12 11 -25 10 -29 -3 -19 2 -34 10
-29 5 3 12 -1 15 -10 3 -8 11 -12 16 -9 6 4 17 1 25 -5 8 -7 15 -8 15 -3 0 5
12 10 27 11 15 1 30 8 35 15 4 6 8 8 8 4 0 -4 11 4 25 19 14 15 25 24 25 20 0
-3 9 3 20 14 11 11 25 20 31 20 5 0 7 5 4 10 -3 6 -1 10 4 10 6 0 38 27 70 59
33 33 62 57 65 54 3 -4 6 0 6 8 0 8 9 22 20 32 12 10 18 23 14 29 -4 6 -3 8 4
4 14 -8 44 23 38 40 -3 8 -2 13 2 12 13 -4 53 36 69 69 8 18 19 30 24 27 5 -3
9 -2 8 3 -4 22 3 33 21 33 13 0 20 -7 20 -20 0 -11 5 -20 10 -20 6 0 10 -9 10
-20 0 -11 4 -20 10 -20 5 0 9 -3 8 -7 -1 -5 6 -20 16 -35 10 -15 14 -33 10
-40 -4 -7 -4 -10 1 -6 11 11 34 -23 35 -50 0 -13 4 -20 10 -17 6 3 10 -3 10
-14 0 -12 5 -21 10 -21 6 0 10 -5 10 -11 0 -6 7 -17 15 -26 8 -8 13 -18 10
-23 -3 -4 2 -11 11 -14 9 -4 14 -13 10 -22 -3 -8 -2 -12 4 -9 6 3 10 -1 10 -9
0 -9 4 -16 8 -16 4 0 19 -18 32 -40 14 -22 28 -40 33 -40 4 0 7 -6 7 -13 0 -7
9 -19 19 -27 11 -7 18 -17 15 -22 -3 -4 0 -8 6 -8 6 0 14 -8 17 -17 9 -23 23
-37 48 -48 26 -10 68 -6 77 9 4 6 8 7 8 2 0 -6 6 -1 14 9 8 11 12 23 10 27 -3
5 -1 8 4 8 10 0 9 30 -2 48 -4 6 -4 12 1 12 4 0 0 5 -9 11 -10 5 -18 17 -18
24 0 19 -36 55 -46 47 -4 -4 -4 1 -1 11 4 11 1 17 -9 17 -8 0 -12 5 -9 10 3 6
1 10 -6 10 -7 0 -9 3 -6 7 4 3 -6 19 -22 34 -16 15 -26 30 -23 34 4 4 -1 11
-11 16 -9 6 -17 17 -17 24 0 8 -5 15 -11 15 -5 0 -8 4 -4 9 3 6 -3 14 -12 20
-10 6 -14 11 -9 11 5 0 4 6 -1 13 -24 30 -63 109 -58 118 4 5 1 9 -5 9 -6 0
-16 12 -23 28 -6 15 -19 33 -27 40 -8 8 -9 11 -2 7 7 -4 12 0 12 10 0 9 -4 13
-10 10 -5 -3 -10 0 -10 9 0 8 -6 17 -12 19 -9 4 -9 6 1 6 12 1 11 4 -3 14 -9
7 -18 22 -19 34 0 12 -5 21 -10 20 -5 -1 -11 6 -12 16 -2 10 -12 28 -22 40
-10 11 -12 17 -5 13 6 -4 12 -2 12 3 0 6 -5 11 -11 11 -5 0 -7 5 -4 10 3 6 2
10 -3 10 -6 0 -13 11 -16 25 -4 16 -11 23 -18 19 -8 -5 -9 -2 -5 9 3 10 2 17
-4 17 -6 0 -7 5 -4 11 4 6 -1 17 -11 25 -11 9 -12 12 -4 8 10 -5 8 1 -5 16
-11 13 -14 20 -7 16 7 -4 4 7 -7 25 -11 18 -17 37 -14 43 3 6 3 8 -1 4 -11
-10 -34 14 -29 29 3 7 0 13 -7 13 -7 0 -10 7 -6 15 3 8 1 15 -4 15 -6 0 -10 9
-10 21 0 11 -4 17 -10 14 -5 -3 -10 1 -10 9 0 9 -4 16 -10 16 -5 0 -6 7 -3 17
5 12 3 14 -7 8 -10 -6 -12 -3 -8 13 4 12 2 20 -2 17 -4 -3 -13 9 -19 25 -5 17
-15 30 -21 30 -6 0 -8 5 -5 10 3 6 1 10 -5 10 -6 0 -8 5 -5 10 3 6 1 10 -4 10
-6 0 -11 6 -11 14 0 8 -5 16 -10 18 -6 2 -12 13 -13 25 0 12 -5 19 -9 17 -4
-3 -8 0 -8 6 0 6 -5 8 -12 4 -8 -5 -9 -2 -5 9 3 9 -1 23 -9 32 -9 8 -12 15 -8
15 3 0 1 7 -6 15 -6 8 -9 19 -5 24 4 7 -1 8 -11 4 -12 -4 -15 -3 -10 5 5 8 0
12 -13 12 -12 0 -21 6 -21 13 0 9 -3 8 -9 -2 -7 -11 -9 -11 -14 0 -4 9 -6 10
-6 2z"/>
<path d="M8748 10520 c-2 -6 -13 -12 -25 -12 -14 -2 -19 -7 -15 -17 3 -8 1
-12 -4 -9 -5 3 -17 -3 -26 -14 -10 -10 -16 -18 -13 -18 3 0 -27 -33 -67 -73
-40 -40 -76 -72 -80 -70 -5 2 -8 0 -8 -6 0 -14 -67 -81 -74 -74 -3 4 -6 1 -6
-6 0 -16 -26 -42 -34 -34 -3 4 -6 -1 -6 -9 0 -9 -7 -19 -16 -22 -8 -3 -12 -10
-9 -16 3 -6 -4 -10 -16 -10 -12 0 -20 -3 -16 -6 7 -7 -49 -64 -64 -64 -6 0 -8
-4 -5 -9 3 -5 -6 -17 -21 -27 -15 -9 -43 -34 -62 -53 -18 -20 -38 -35 -43 -33
-5 1 -7 -2 -3 -7 3 -6 -4 -15 -15 -21 -11 -6 -17 -16 -14 -22 5 -8 1 -9 -10
-5 -14 6 -17 3 -12 -8 3 -9 2 -13 -4 -10 -6 3 -10 1 -10 -6 0 -7 -3 -10 -6 -6
-3 3 -23 -11 -44 -31 -59 -57 -69 -64 -82 -56 -7 4 -8 3 -4 -5 4 -6 0 -14 -8
-17 -9 -3 -14 -10 -11 -14 3 -4 -3 -14 -12 -21 -13 -11 -15 -11 -9 -1 7 11 4
11 -12 1 -12 -7 -20 -15 -19 -18 1 -4 -8 -16 -21 -29 -12 -12 -22 -19 -23 -14
0 4 -4 -1 -8 -11 -4 -10 -11 -19 -16 -20 -6 0 -18 -11 -28 -24 -10 -13 -23
-23 -28 -23 -6 0 -17 -7 -25 -15 -9 -8 -13 -15 -9 -15 3 0 -5 -10 -18 -22 -14
-13 -25 -26 -26 -31 0 -4 -8 -18 -17 -32 -9 -14 -14 -31 -11 -39 3 -7 0 -19
-6 -26 -9 -10 -9 -11 2 -5 10 6 13 4 8 -7 -3 -9 0 -21 6 -28 9 -10 9 -11 -3
-5 -8 4 -5 -2 7 -14 12 -11 27 -21 33 -21 5 0 10 -4 10 -9 0 -5 14 -11 30 -13
17 -3 30 -1 30 3 0 4 9 6 20 4 12 -2 20 2 20 9 0 8 10 21 23 30 12 9 16 14 8
10 -10 -5 -12 -3 -5 7 4 8 9 26 10 40 3 31 32 69 54 69 13 0 13 1 0 10 -13 8
-13 10 1 10 9 0 24 11 35 24 10 14 21 23 26 20 4 -3 8 0 8 5 0 6 7 11 15 11 8
0 14 3 12 8 -1 4 8 17 21 30 12 12 22 20 22 17 0 -3 9 3 19 12 11 9 18 20 15
25 -3 5 -2 8 3 7 18 -3 36 1 30 7 -8 9 44 54 61 54 7 0 11 3 9 8 -3 4 1 13 9
20 8 7 14 9 14 5 0 -4 7 3 16 15 8 12 29 29 45 37 16 9 28 19 26 23 -2 4 4 15
15 25 12 11 18 13 19 5 0 -7 4 -3 9 10 6 14 18 22 32 22 17 0 19 -3 10 -9 -8
-4 -14 -12 -14 -16 0 -4 6 -12 14 -16 10 -7 10 -9 0 -9 -10 0 -10 -5 -2 -20 6
-11 8 -20 4 -20 -3 0 0 -8 7 -17 12 -15 12 -16 -1 -8 -12 6 -12 5 -3 -5 6 -7
8 -23 4 -39 -8 -30 -7 -39 4 -64 4 -10 5 -20 2 -23 -3 -4 -2 -17 3 -30 7 -16
6 -24 -1 -24 -8 0 -7 -5 1 -15 10 -12 10 -15 -1 -15 -12 0 -12 -2 0 -9 7 -5
11 -13 7 -19 -3 -6 -2 -13 3 -16 4 -3 7 -19 5 -36 -2 -19 1 -30 9 -30 9 0 8
-3 -1 -9 -17 -10 -15 -21 4 -43 11 -11 12 -18 4 -23 -8 -5 -8 -11 1 -21 9 -11
8 -14 -2 -14 -9 0 -10 -3 -4 -8 12 -9 18 -28 19 -64 1 -16 5 -28 9 -28 5 0 5
-4 2 -10 -3 -5 1 -23 9 -39 12 -23 13 -31 3 -34 -7 -3 -6 -6 5 -6 11 -1 15 -8
13 -26 -1 -14 2 -25 6 -25 5 0 9 -9 9 -20 0 -11 5 -20 10 -20 6 0 10 -10 10
-22 0 -12 3 -18 7 -15 3 4 11 -3 17 -16 6 -12 22 -24 35 -25 19 -3 21 -6 10
-14 -11 -7 -8 -9 9 -5 12 3 22 1 22 -4 0 -14 17 -11 34 6 8 9 19 15 23 14 4
-1 16 13 25 31 14 27 15 37 5 49 -9 12 -9 13 0 7 9 -5 11 -2 7 8 -3 8 -12 17
-20 20 -8 3 -14 12 -14 21 0 8 -4 15 -9 15 -10 0 -20 29 -33 92 -2 7 -6 15
-10 18 -4 3 -9 22 -11 43 -2 20 -7 40 -10 44 -4 3 -7 24 -7 45 0 21 -5 38 -11
38 -8 0 -8 5 1 15 10 12 10 15 0 15 -10 0 -10 3 0 15 7 8 9 15 4 15 -5 0 -10
21 -12 47 -1 26 -6 50 -10 53 -9 6 -7 37 4 64 4 12 4 17 -2 13 -6 -3 -11 25
-13 71 -3 106 -5 122 -12 122 -10 0 -5 34 6 42 6 5 5 8 -3 8 -10 0 -10 5 -1
21 8 16 8 20 -1 14 -9 -6 -9 -2 -1 14 8 14 8 21 1 21 -7 0 -8 6 -1 18 6 11 6
23 2 28 -15 17 -21 63 -9 70 7 5 8 3 3 -6 -5 -9 -4 -11 3 -6 7 4 12 14 12 23
0 9 6 13 14 10 8 -3 13 1 12 11 0 9 10 22 24 29 14 7 22 13 18 13 -12 0 39 50
51 50 7 0 10 4 7 9 -3 5 2 15 11 22 14 12 16 12 8 0 -5 -10 -4 -12 3 -7 7 4
12 14 12 23 0 9 6 13 14 10 8 -3 13 1 12 11 0 9 9 21 21 27 13 7 21 14 18 17
-3 3 2 11 12 19 14 12 16 12 8 0 -5 -10 -4 -12 3 -7 7 4 12 14 12 22 0 8 5 14
10 14 6 0 10 8 10 17 0 9 3 14 6 11 3 -4 14 2 25 13 29 29 13 124 -18 112 -11
-4 -14 -2 -9 5 10 17 -28 34 -44 19 -10 -9 -11 -9 -6 1 4 6 3 12 -3 12 -5 0
-11 -5 -13 -10z"/>
<path d="M1996 10216 c-39 -23 -54 -39 -48 -54 3 -10 1 -13 -6 -8 -7 4 -12 1
-12 -8 0 -9 -4 -16 -10 -16 -5 0 -7 -7 -4 -15 4 -8 1 -15 -6 -15 -6 0 -8 -4
-5 -10 3 -5 1 -10 -4 -10 -6 0 -10 -3 -9 -7 3 -12 -36 -73 -46 -73 -5 0 -2 -8
5 -17 8 -9 9 -14 3 -10 -6 3 -18 -3 -27 -14 -9 -10 -14 -19 -10 -19 3 0 -1 -8
-10 -18 -10 -10 -14 -22 -10 -26 4 -4 -1 -4 -12 0 -11 4 -17 4 -14 0 10 -11
-41 -62 -57 -58 -8 2 -14 -3 -14 -10 0 -7 -14 -28 -30 -46 -16 -19 -54 -62
-84 -95 -103 -117 -116 -132 -116 -139 0 -4 -6 -13 -13 -20 -7 -7 -20 -25 -30
-40 -10 -16 -25 -28 -34 -28 -9 0 -14 -3 -10 -6 3 -3 -4 -17 -16 -31 -12 -13
-32 -35 -43 -48 -12 -13 -20 -26 -17 -29 3 -2 -5 -10 -17 -16 -12 -6 -19 -14
-17 -17 3 -3 -8 -18 -24 -34 -16 -16 -27 -29 -24 -29 3 0 -4 -10 -17 -23 -13
-13 -32 -35 -43 -50 -11 -15 -25 -27 -32 -27 -7 0 -12 -3 -10 -8 3 -10 -40
-52 -47 -45 -6 6 -10 -12 -7 -29 0 -4 -7 -4 -16 -1 -10 4 -14 2 -10 -4 4 -6
-2 -18 -13 -28 -25 -23 -25 -37 0 -55 11 -8 20 -21 20 -28 0 -9 6 -12 16 -8 8
3 12 2 9 -4 -3 -6 1 -10 9 -10 9 0 16 -5 16 -11 0 -8 5 -8 15 1 12 10 15 10
15 -1 0 -8 9 -4 23 11 12 14 18 19 12 11 -5 -9 35 29 91 84 55 55 99 103 97
107 -2 4 6 9 17 13 11 3 20 12 20 20 0 7 22 35 48 62 27 27 51 57 55 66 3 9
11 17 17 17 5 0 10 6 10 14 0 8 9 18 20 21 18 6 25 17 21 38 -1 5 2 7 6 5 8
-4 55 39 50 46 -5 7 37 54 45 50 4 -3 8 1 8 9 0 7 14 29 31 48 18 19 28 28 24
20 -5 -10 -4 -12 4 -7 6 4 9 11 6 15 -5 10 39 54 47 46 2 -3 15 15 28 39 12
25 35 55 51 67 16 12 26 26 23 31 -3 5 3 12 15 15 11 3 19 9 16 13 -2 4 4 15
14 24 18 16 19 15 23 -9 3 -14 1 -25 -6 -25 -6 0 -4 -5 4 -10 8 -5 10 -10 4
-10 -7 0 -8 -17 -4 -50 4 -33 3 -50 -4 -50 -6 0 -4 -5 4 -10 8 -5 11 -10 5
-10 -6 0 -10 -35 -9 -88 1 -48 -3 -93 -9 -99 -6 -8 -6 -13 0 -13 5 0 10 -13
10 -30 0 -16 -5 -27 -10 -23 -6 4 -7 1 -1 -8 12 -19 12 -30 1 -53 -6 -13 -6
-16 2 -12 7 5 9 1 5 -8 -3 -9 -11 -16 -18 -16 -6 0 -4 -5 4 -10 8 -5 11 -10 5
-10 -6 0 -9 -27 -8 -65 1 -44 -2 -65 -10 -65 -8 0 -8 -3 -2 -8 13 -9 16 -42 3
-42 -5 0 -6 -4 -3 -10 3 -5 1 -10 -5 -10 -8 0 -8 -6 0 -20 8 -15 8 -20 -2 -20
-9 0 -9 -3 2 -10 8 -5 10 -10 4 -10 -6 0 -10 -11 -9 -25 2 -14 0 -25 -4 -25
-3 0 -6 -19 -6 -42 0 -24 -4 -46 -10 -50 -6 -5 -5 -8 2 -8 9 0 10 -7 3 -25 -7
-18 -6 -25 3 -25 8 0 8 -3 2 -8 -6 -4 -10 -17 -9 -29 1 -13 -2 -23 -6 -23 -4
0 -7 -21 -6 -47 1 -27 -1 -60 -5 -74 -4 -15 -3 -32 1 -40 5 -7 6 -18 3 -23 -4
-5 -5 -32 -4 -58 2 -32 -2 -48 -9 -48 -9 0 -9 -5 1 -17 8 -9 9 -14 3 -10 -7 4
-11 -5 -12 -24 0 -20 3 -27 11 -22 9 5 9 3 1 -8 -6 -8 -9 -48 -7 -94 7 -138 6
-208 -2 -275 -6 -56 -4 -68 13 -87 10 -13 22 -20 26 -16 3 3 6 0 6 -8 0 -9 11
-14 29 -14 16 -1 27 3 25 7 -5 7 19 13 39 9 5 -1 6 3 2 9 -3 5 -2 10 4 10 10
0 27 38 23 53 -1 4 3 7 10 7 6 0 8 3 5 7 -4 3 -2 12 4 20 6 7 8 13 3 13 -5 0
-9 11 -9 25 0 14 3 25 6 25 3 0 6 7 6 15 0 8 -3 15 -7 15 -4 0 -7 7 -7 15 0 8
4 12 9 9 10 -6 11 10 1 20 -9 9 -11 46 -2 46 11 0 5 34 -7 42 -12 8 -13 66 -1
85 4 6 3 14 -3 18 -6 4 -7 13 -1 23 5 9 5 26 1 37 -4 11 -3 26 2 33 6 6 7 12
4 12 -4 0 -2 9 4 20 8 14 8 20 0 20 -8 0 -8 6 0 20 8 15 8 20 -2 20 -9 0 -9 3
2 10 12 8 12 10 1 10 -10 0 -11 3 -3 13 6 7 8 18 4 24 -7 11 -8 68 -1 68 1 0
3 18 5 40 2 36 10 80 14 80 1 0 3 12 4 28 1 15 -2 27 -6 27 -4 0 -3 12 3 26 5
15 7 29 4 32 -2 3 3 11 13 19 9 8 11 12 5 8 -7 -3 -13 -2 -13 3 0 16 39 21 51
6 6 -8 17 -14 25 -14 7 0 20 -8 30 -17 9 -9 26 -19 38 -20 11 -2 25 -8 30 -13
6 -6 18 -10 29 -10 10 0 15 -4 12 -10 -3 -5 3 -10 15 -10 13 0 19 -4 14 -12
-4 -7 -3 -8 5 -4 6 4 18 2 26 -4 8 -6 19 -9 25 -5 5 3 13 -1 16 -9 3 -9 10
-13 15 -10 5 3 9 0 9 -5 0 -6 6 -10 13 -8 6 1 11 -3 10 -10 -2 -8 8 -11 27 -8
17 2 30 -1 30 -7 0 -6 3 -9 6 -5 4 3 22 0 40 -8 19 -8 34 -11 34 -7 0 9 74 7
89 -2 6 -4 11 -3 11 3 0 5 9 13 21 16 13 4 18 12 15 21 -4 10 -2 12 5 8 7 -4
10 -1 7 7 -3 8 1 20 9 27 10 11 8 18 -17 42 -16 15 -26 31 -23 34 4 3 -3 6
-14 6 -12 0 -23 6 -26 13 -3 9 -7 9 -20 -2 -13 -10 -17 -10 -17 -1 0 10 -3 10
-15 0 -8 -7 -15 -8 -15 -3 0 5 -10 10 -22 10 -13 1 -24 7 -26 12 -2 5 -10 7
-18 4 -8 -3 -14 1 -14 8 0 11 -2 11 -10 -1 -8 -12 -10 -12 -16 3 -3 9 -10 15
-14 12 -5 -3 -15 1 -23 9 -8 8 -17 12 -21 9 -3 -4 -6 -1 -6 6 0 7 -4 10 -9 6
-5 -3 -12 -1 -16 5 -3 5 -15 15 -27 21 -16 9 -19 8 -12 -3 10 -16 -25 9 -43
32 -9 11 -12 12 -13 2 0 -10 -4 -10 -16 2 -8 9 -22 16 -30 16 -8 0 -14 5 -14
10 0 5 -3 9 -7 8 -5 -1 -19 4 -32 11 -18 10 -22 10 -16 1 5 -7 -6 -5 -23 5
-17 10 -29 22 -26 26 2 4 -6 5 -18 1 -13 -3 -19 -1 -14 6 3 5 1 23 -4 38 -9
23 -9 25 4 15 13 -11 14 -8 10 15 -3 15 -7 31 -10 36 -3 4 0 8 6 8 7 0 8 6 1
18 -6 11 -5 23 3 34 7 9 11 33 10 53 -2 26 0 34 9 28 9 -5 9 -3 1 8 -6 8 -10
31 -10 52 1 20 -3 37 -9 37 -6 0 -6 3 1 8 6 4 10 17 9 30 -1 12 3 22 9 22 6 0
4 5 -4 10 -8 5 -10 10 -5 10 10 0 12 66 3 76 -3 3 -2 21 2 40 4 19 4 36 -1 39
-4 3 -4 17 1 30 7 18 6 25 -3 25 -7 0 -8 3 -2 8 13 9 16 42 3 42 -5 0 -6 5 -3
11 12 18 12 69 1 69 -7 0 -8 3 -1 8 14 10 17 32 4 32 -8 0 -8 5 1 15 10 12 10
15 0 15 -10 0 -10 4 1 16 10 13 10 17 -2 25 -8 5 -9 9 -4 9 6 0 11 9 11 20 0
11 -4 20 -8 20 -4 0 -3 11 2 25 6 16 6 26 -1 31 -6 4 -6 11 2 20 9 11 9 14 0
14 -7 0 -9 5 -6 10 4 6 1 17 -5 25 -7 8 -9 15 -5 15 5 0 -2 8 -13 19 -12 10
-22 23 -22 28 0 6 -10 10 -22 9 -13 -1 -25 1 -28 5 -3 4 -14 1 -24 -5z m-696
-1140 c0 -2 -8 -10 -17 -17 -16 -13 -17 -12 -4 4 13 16 21 21 21 13z"/>
<path d="M9577 10129 c-15 -17 -24 -35 -21 -40 3 -5 0 -8 -6 -7 -11 3 -19 -16
-22 -49 -1 -7 -6 -13 -11 -13 -5 0 -7 -7 -3 -15 3 -8 0 -15 -6 -15 -6 0 -8 -3
-5 -7 4 -3 1 -13 -6 -21 -9 -13 -9 -14 0 -8 9 5 11 2 7 -8 -3 -9 -10 -16 -14
-16 -5 0 -7 -8 -5 -17 1 -10 -2 -27 -8 -38 -6 -11 -10 -23 -9 -27 1 -5 -4 -8
-10 -8 -9 0 -8 -4 2 -10 11 -7 11 -10 2 -10 -7 0 -10 -4 -7 -10 3 -5 1 -10 -5
-10 -6 0 -8 -4 -5 -10 3 -5 0 -10 -7 -10 -10 0 -9 -3 2 -10 12 -8 12 -10 -3
-16 -9 -3 -14 -10 -12 -15 3 -5 -1 -22 -10 -39 -9 -17 -13 -35 -10 -40 3 -6 1
-10 -5 -10 -7 0 -10 -6 -7 -14 7 -17 -8 -24 -45 -22 -14 1 -26 -3 -25 -9 1 -5
-4 -9 -10 -7 -7 1 -13 -2 -13 -7 0 -7 -13 -14 -50 -25 -3 -1 -9 -4 -15 -7 -5
-4 -22 -6 -37 -5 -16 1 -28 -2 -28 -6 0 -4 -5 -8 -11 -8 -5 0 -7 6 -3 13 5 8
2 8 -9 -2 -13 -10 -17 -10 -17 -1 0 9 -3 10 -13 1 -10 -8 -17 -7 -27 2 -10 9
-11 9 -6 0 8 -15 -10 -18 -19 -4 -3 6 -14 8 -25 6 -11 -2 -20 0 -20 5 0 4 -7
11 -16 14 -8 3 -12 2 -9 -4 3 -5 0 -7 -8 -4 -8 3 -17 15 -20 26 -4 14 -11 19
-21 15 -9 -4 -16 -3 -16 2 0 5 -9 11 -20 14 -24 6 -95 -57 -84 -74 4 -7 3 -9
-3 -6 -7 4 -10 -3 -9 -18 0 -14 4 -25 9 -25 4 0 7 -5 7 -11 0 -19 62 -70 92
-76 15 -3 28 -9 28 -14 0 -4 9 -6 20 -4 11 2 20 0 20 -5 0 -4 9 -6 20 -3 12 3
20 0 20 -7 0 -10 3 -10 15 0 12 10 15 10 15 0 0 -10 3 -10 15 0 10 8 15 9 15
1 0 -13 42 -10 52 4 5 6 8 6 8 -2 0 -6 9 -11 20 -10 11 1 20 5 20 9 0 4 7 5
15 2 8 -3 27 -2 42 3 52 18 60 -3 26 -67 -7 -14 -13 -31 -13 -37 0 -7 -5 -13
-12 -13 -6 0 -8 -3 -5 -6 3 -4 1 -16 -5 -28 -7 -11 -11 -24 -10 -28 1 -5 -3
-8 -9 -8 -6 0 -9 -6 -6 -14 3 -8 -2 -17 -11 -21 -13 -5 -14 -8 -3 -14 11 -7
10 -11 -5 -20 -11 -6 -16 -11 -11 -11 4 0 0 -11 -9 -25 -9 -14 -13 -25 -9 -25
4 0 2 -7 -5 -15 -6 -8 -8 -20 -4 -26 4 -7 3 -9 -3 -6 -12 8 -23 -14 -23 -44 0
-13 -4 -18 -12 -13 -7 4 -8 3 -4 -5 4 -6 2 -18 -4 -26 -7 -8 -10 -21 -6 -30 3
-9 -3 -19 -15 -26 -12 -6 -18 -17 -15 -25 3 -8 0 -14 -6 -14 -7 0 -6 -5 2 -15
10 -12 9 -16 -2 -20 -8 -3 -15 -11 -16 -18 -2 -22 -7 -42 -15 -54 -5 -7 -5
-17 -2 -23 3 -5 2 -10 -4 -10 -6 0 -8 -6 -5 -14 3 -8 1 -17 -5 -21 -6 -3 -11
-16 -11 -29 0 -12 -5 -27 -12 -34 -7 -7 -8 -12 -4 -12 5 0 2 -8 -5 -17 -8 -10
-9 -14 -2 -10 6 4 14 3 18 -3 3 -5 2 -10 -2 -10 -5 0 -9 -9 -9 -19 0 -11 3
-18 7 -15 4 2 9 -3 13 -11 3 -8 15 -15 26 -15 12 0 19 -4 15 -9 -3 -6 4 -9 15
-8 11 1 20 6 20 12 0 5 4 4 8 -3 6 -9 17 -4 43 19 19 18 28 28 20 24 -10 -6
-12 -4 -5 6 4 8 9 19 10 24 5 26 10 40 15 45 4 3 8 21 10 40 2 19 7 40 12 47
5 7 6 16 3 22 -3 5 -1 11 4 13 6 2 13 17 16 33 3 16 11 33 17 37 9 5 8 8 -3 8
-9 0 -11 3 -5 8 17 12 36 52 30 62 -4 6 -1 10 5 10 6 0 9 4 5 9 -3 5 -1 12 5
16 5 3 10 13 10 22 0 9 8 22 18 30 9 8 11 12 5 8 -15 -7 -18 11 -3 20 5 3 15
16 22 28 11 21 10 21 -8 7 -18 -14 -18 -13 1 10 11 14 25 28 30 32 6 4 6 8 1
8 -5 0 -4 6 1 13 5 6 9 19 8 27 0 8 5 20 13 25 7 6 14 17 15 25 2 8 6 21 10
28 5 6 5 12 1 12 -4 0 1 7 12 16 10 8 13 13 7 9 -9 -4 -11 -1 -7 9 3 9 11 13
17 9 6 -3 7 -1 3 6 -4 6 -3 17 2 24 5 7 8 20 7 30 -2 9 0 15 3 13 4 -2 14 11
23 30 9 18 11 31 5 27 -6 -3 -5 0 2 8 6 7 12 21 12 31 0 10 4 18 9 18 6 0 8 9
6 20 -2 11 0 20 5 20 9 0 34 58 33 78 0 6 3 12 9 12 5 0 6 5 3 10 -4 6 -2 16
3 23 11 13 12 17 12 43 0 8 4 13 9 10 5 -4 7 3 4 14 -3 11 0 20 6 20 5 0 8 7
5 15 -4 8 -1 15 6 15 7 0 10 7 6 15 -3 8 -1 15 5 15 6 0 7 5 4 10 -3 6 -3 16
2 23 4 6 9 21 10 32 2 10 8 22 15 26 6 4 8 11 4 17 -3 6 -2 13 4 17 6 4 8 10
5 15 -3 5 -1 11 5 15 6 4 8 11 5 16 -4 5 -2 9 3 9 5 0 8 11 7 25 -2 14 1 25 7
25 6 0 7 7 4 16 -4 10 -2 13 6 8 8 -5 9 -1 4 12 -4 10 -4 15 0 11 4 -4 13 6
21 20 9 18 11 29 4 31 -6 2 -11 8 -11 13 0 6 5 7 10 4 6 -3 10 -1 10 4 0 6 -4
11 -9 11 -5 0 -12 11 -15 24 -6 25 -44 39 -68 25 -7 -4 -17 -4 -23 1 -7 6 -21
-1 -38 -21z"/>
<path d="M5534 9134 c5 -13 3 -14 -6 -7 -7 6 -22 9 -33 6 -11 -2 -32 -5 -47
-6 -15 -2 -31 -6 -34 -10 -4 -4 -13 -2 -21 4 -7 6 -13 7 -13 2 0 -9 -18 -12
-78 -13 -22 0 -30 -4 -26 -12 5 -7 3 -8 -7 -2 -20 12 -39 14 -39 3 0 -6 -4 -7
-10 -4 -5 3 -10 2 -10 -3 0 -5 -12 -8 -27 -6 -15 1 -34 -3 -42 -9 -12 -10 -13
-9 -6 3 7 12 6 13 -7 3 -8 -7 -18 -10 -21 -6 -4 3 -7 2 -7 -3 0 -6 -10 -11
-22 -11 -53 -4 -78 -8 -78 -15 0 -4 -9 -5 -20 -3 -12 2 -18 0 -14 -6 3 -6 -2
-10 -12 -9 -11 1 -21 1 -24 0 -3 -1 -15 -3 -27 -6 -12 -2 -28 -5 -35 -6 -7 -2
-19 -9 -27 -16 -11 -11 -15 -11 -22 0 -7 10 -9 10 -9 -1 0 -8 -3 -11 -7 -8 -3
4 -15 -1 -26 -10 -15 -13 -18 -14 -12 -3 5 9 -1 7 -15 -5 -13 -11 -20 -14 -16
-7 10 18 -4 15 -27 -5 -15 -13 -18 -14 -12 -3 7 12 6 13 -7 3 -8 -7 -18 -10
-21 -6 -4 3 -7 0 -7 -7 0 -7 -3 -10 -7 -7 -3 4 -12 -1 -20 -11 -8 -9 -12 -11
-8 -4 4 7 0 12 -10 12 -10 0 -13 -5 -9 -12 5 -8 2 -9 -9 -5 -10 3 -17 2 -17
-4 0 -6 -4 -8 -9 -4 -6 3 -14 -3 -20 -12 -6 -10 -11 -13 -11 -5 0 9 -6 8 -24
-4 -14 -8 -27 -15 -30 -15 -20 3 -26 -1 -20 -11 5 -8 0 -7 -11 2 -11 9 -16 10
-11 3 6 -12 -5 -18 -26 -14 -5 0 -8 -4 -8 -10 0 -6 -7 -9 -15 -5 -8 3 -15 1
-15 -4 0 -6 -7 -10 -16 -10 -8 0 -13 -4 -9 -9 3 -6 -4 -8 -15 -6 -11 2 -20 -1
-20 -6 0 -6 -4 -8 -9 -5 -4 3 -19 -3 -31 -14 -12 -11 -27 -17 -31 -14 -5 3 -9
0 -9 -6 0 -6 -4 -8 -10 -5 -5 3 -10 1 -10 -4 0 -6 -7 -11 -16 -11 -8 0 -13 -4
-9 -9 3 -6 -3 -8 -15 -6 -11 2 -22 -1 -25 -6 -4 -5 -11 -6 -17 -3 -6 4 -8 2
-4 -4 3 -6 -7 -16 -24 -24 -16 -7 -30 -17 -30 -21 0 -5 -4 -6 -9 -2 -5 3 -12
1 -16 -5 -4 -6 -10 -8 -15 -5 -4 3 -10 -2 -14 -10 -3 -8 -13 -15 -21 -15 -9 0
-13 -4 -10 -10 3 -5 0 -7 -7 -5 -8 3 -23 -4 -35 -15 -12 -11 -27 -20 -33 -20
-5 0 -10 -5 -10 -11 0 -5 -4 -8 -9 -5 -5 3 -12 -1 -15 -10 -4 -9 -9 -14 -13
-10 -3 3 -12 -3 -20 -14 -8 -11 -20 -20 -27 -20 -7 0 -26 -11 -42 -25 -16 -14
-34 -25 -39 -25 -6 0 -17 -9 -25 -20 -8 -11 -20 -20 -28 -20 -7 0 -11 -4 -8
-9 6 -8 -30 -25 -47 -22 -5 1 -6 -3 -2 -9 3 -5 -1 -13 -10 -16 -8 -4 -29 -19
-46 -35 -17 -16 -35 -26 -40 -23 -5 3 -8 2 -7 -3 4 -12 -52 -64 -63 -58 -4 3
-10 -4 -14 -15 -3 -11 -11 -20 -16 -20 -6 0 -7 -5 -3 -12 4 -6 3 -9 -2 -5 -5
3 -18 -1 -29 -9 -10 -8 -16 -14 -12 -14 4 0 -3 -10 -15 -22 -13 -13 -25 -23
-28 -22 -3 1 -13 -7 -22 -17 -10 -11 -16 -19 -13 -19 3 0 -5 -10 -17 -22 -13
-13 -26 -22 -30 -21 -4 2 -10 -6 -13 -17 -4 -11 -13 -20 -21 -20 -8 0 -13 -6
-12 -12 2 -7 -3 -12 -9 -10 -7 1 -13 -2 -13 -8 0 -5 -11 -20 -24 -33 -14 -14
-22 -28 -19 -31 4 -3 -2 -6 -13 -6 -16 0 -17 -2 -4 -10 13 -8 12 -10 -3 -10
-11 0 -21 -9 -24 -20 -3 -11 -9 -18 -13 -15 -4 3 -10 -5 -13 -16 -4 -13 -10
-18 -18 -13 -7 4 -10 3 -5 -4 8 -13 -49 -74 -60 -64 -4 4 -4 1 0 -6 5 -8 0
-22 -12 -35 -11 -12 -36 -48 -57 -79 -21 -32 -42 -58 -47 -58 -5 0 -7 -4 -3
-9 3 -5 1 -12 -5 -16 -6 -4 -8 -11 -5 -16 3 -5 -1 -6 -9 -3 -15 6 -22 -12 -17
-40 1 -5 -5 -6 -13 -3 -10 4 -13 1 -9 -8 3 -8 -2 -18 -11 -21 -9 -3 -16 -10
-16 -16 0 -5 6 -6 13 -3 6 4 4 0 -5 -8 -10 -8 -15 -17 -11 -20 3 -4 -1 -7 -10
-7 -10 0 -18 -4 -18 -10 -1 -5 -3 -14 -4 -20 -1 -5 -3 -15 -4 -21 0 -5 -5 -8
-10 -5 -4 3 -13 -13 -20 -35 -7 -22 -16 -37 -21 -34 -6 4 -10 3 -11 -2 -3 -32
-11 -59 -19 -61 -6 -2 -10 -10 -10 -17 0 -7 -6 -16 -12 -18 -9 -4 -9 -6 1 -6
12 -1 11 -4 -3 -14 -9 -7 -18 -22 -19 -34 0 -12 -4 -20 -8 -17 -4 2 -11 -6
-15 -18 -3 -13 -11 -29 -18 -37 -6 -7 -11 -19 -12 -25 -1 -22 -26 -76 -35 -76
-4 0 -6 -6 -3 -14 3 -8 0 -17 -5 -21 -6 -3 -9 -11 -6 -16 4 -5 1 -9 -4 -9 -6
0 -10 -3 -10 -7 3 -16 -14 -72 -20 -69 -4 3 -8 -7 -9 -22 -1 -14 -7 -29 -13
-33 -7 -4 -9 -11 -5 -17 3 -5 -1 -13 -10 -16 -13 -5 -14 -9 -4 -21 10 -12 9
-16 -2 -20 -9 -4 -14 -18 -13 -36 1 -16 -3 -33 -8 -36 -6 -4 -7 -1 -2 7 5 8 4
11 -3 7 -5 -4 -9 -15 -8 -25 2 -9 -2 -20 -8 -24 -7 -5 -6 -8 4 -8 11 0 12 -3
3 -8 -6 -4 -13 -19 -15 -32 -2 -14 -7 -30 -10 -36 -9 -14 -21 -73 -21 -101 1
-13 -3 -23 -7 -23 -5 0 -7 -9 -5 -20 2 -11 -1 -20 -6 -20 -5 0 -9 -6 -8 -12 4
-32 -2 -49 -13 -42 -10 6 -10 5 -1 -8 7 -8 10 -18 6 -22 -11 -11 -12 -40 -2
-52 7 -8 6 -15 -2 -20 -8 -5 -9 -3 -4 6 6 9 4 11 -4 5 -7 -4 -11 -16 -8 -26 3
-11 0 -19 -5 -19 -7 0 -6 -5 1 -13 6 -8 7 -17 3 -21 -8 -8 -9 -14 -11 -52 0
-14 -5 -23 -9 -20 -4 2 -8 -4 -8 -15 0 -10 3 -19 6 -19 3 0 6 -9 6 -19 0 -11
-4 -17 -8 -15 -8 5 -9 -2 -11 -88 -1 -27 -6 -48 -11 -48 -4 0 -3 -7 4 -15 10
-12 10 -15 -1 -15 -11 0 -11 -2 1 -10 12 -8 12 -10 1 -10 -11 0 -11 -3 -1 -15
7 -8 8 -15 3 -15 -5 0 -10 -7 -10 -15 0 -8 5 -15 10 -15 5 0 4 -7 -3 -15 -8
-9 -8 -15 -2 -15 7 0 8 -10 2 -30 -5 -19 -5 -28 1 -25 5 4 5 -4 -1 -19 -7 -18
-6 -26 1 -26 8 0 7 -5 -1 -15 -9 -11 -9 -15 -1 -15 9 0 9 -5 1 -20 -8 -15 -8
-20 1 -20 8 0 8 -4 -1 -15 -10 -12 -10 -15 0 -15 10 0 10 -4 -1 -16 -7 -9 -9
-18 -3 -22 11 -8 11 -52 0 -70 -4 -7 -2 -12 5 -12 9 0 9 -3 0 -14 -8 -9 -8
-16 -2 -20 7 -4 7 -15 1 -31 -6 -16 -6 -27 1 -31 5 -3 7 -21 4 -41 -4 -24 -2
-32 7 -27 7 4 8 3 4 -5 -4 -6 -2 -19 6 -28 9 -12 9 -15 1 -9 -7 4 -13 2 -13
-3 0 -6 4 -11 9 -11 10 0 9 -19 -2 -37 -5 -7 -4 -13 1 -13 6 0 9 -13 8 -29 -1
-17 2 -27 6 -25 5 3 7 -6 4 -20 -3 -14 -1 -26 4 -26 4 0 7 -11 5 -25 -1 -14 2
-28 6 -31 5 -3 9 -12 9 -20 0 -10 -5 -12 -12 -8 -9 6 -9 3 0 -9 8 -9 10 -22 6
-28 -4 -8 -3 -9 4 -5 7 4 12 1 12 -9 0 -10 -5 -13 -12 -9 -7 4 -4 -2 6 -14 11
-12 16 -22 11 -22 -4 0 -1 -8 6 -17 9 -10 9 -14 2 -10 -9 6 -8 -2 2 -26 8 -19
11 -44 8 -55 -3 -12 -1 -22 5 -22 5 0 13 -7 16 -16 4 -10 2 -13 -7 -7 -6 4 -4
-6 7 -21 13 -21 15 -30 6 -36 -8 -5 -7 -9 4 -13 10 -4 13 -13 9 -23 -4 -11 -2
-15 4 -11 6 4 11 -2 12 -16 2 -50 6 -65 15 -60 5 4 7 -1 3 -10 -3 -9 -2 -19 4
-22 5 -4 7 -10 4 -15 -3 -5 1 -15 9 -23 8 -8 12 -17 9 -21 -3 -3 -2 -11 4 -18
5 -7 9 -20 8 -28 0 -8 6 -20 13 -25 7 -6 14 -25 14 -43 1 -19 6 -32 14 -32 7
0 11 -8 9 -20 -2 -11 0 -20 6 -20 5 0 9 -9 9 -20 0 -11 4 -20 10 -20 5 0 9 -3
9 -7 -3 -20 2 -34 11 -28 5 3 7 0 4 -8 -3 -8 2 -22 11 -31 9 -9 11 -16 5 -16
-6 0 -8 -5 -5 -10 4 -6 11 -7 17 -4 7 4 8 2 4 -5 -4 -6 0 -23 8 -36 9 -14 14
-25 11 -25 -4 0 1 -7 9 -16 9 -8 14 -20 11 -25 -4 -5 -1 -9 4 -9 6 0 11 -9 11
-20 0 -11 3 -20 8 -20 4 0 13 -9 20 -21 9 -14 10 -19 2 -14 -9 6 -9 2 -1 -14
7 -11 17 -21 23 -21 6 0 8 -3 5 -7 -4 -3 1 -12 11 -20 9 -8 11 -11 4 -8 -11 6
-11 3 0 -14 7 -12 16 -21 20 -21 5 0 8 -9 8 -20 0 -11 3 -20 8 -20 8 0 42 -57
39 -66 -1 -3 6 -10 16 -15 9 -6 17 -19 17 -30 0 -11 5 -17 10 -14 6 3 10 -1
10 -9 0 -9 5 -16 10 -16 6 0 10 -5 10 -11 0 -6 7 -17 15 -26 8 -8 13 -19 9
-24 -3 -5 -2 -9 3 -8 26 4 35 -1 24 -15 -10 -11 -8 -16 8 -21 12 -3 21 -13 21
-21 0 -8 5 -14 10 -14 6 0 10 -9 10 -21 0 -11 5 -17 10 -14 6 3 10 1 10 -5 0
-6 14 -25 30 -42 17 -16 28 -34 24 -39 -3 -5 2 -9 11 -9 8 0 21 -11 27 -25 6
-14 15 -25 20 -25 4 0 8 -7 8 -15 0 -8 6 -14 13 -12 6 1 11 -6 11 -15 -1 -10
2 -15 7 -12 5 3 9 -2 9 -11 0 -9 4 -14 9 -10 5 3 12 -4 16 -14 4 -12 12 -18
21 -14 10 4 12 0 8 -11 -3 -9 -1 -16 5 -16 16 0 61 -46 54 -54 -4 -3 -1 -6 6
-6 16 0 42 -26 34 -34 -4 -3 1 -6 9 -6 9 0 18 -9 21 -20 4 -14 10 -18 23 -13
11 4 15 3 11 -4 -4 -6 4 -20 18 -31 14 -11 25 -25 25 -32 0 -7 7 -10 15 -6 10
4 15 -1 16 -17 0 -12 3 -17 6 -10 3 10 7 10 18 0 7 -7 10 -16 7 -21 -3 -5 0
-6 5 -3 6 4 23 -9 39 -28 15 -19 32 -35 37 -35 4 0 15 -7 24 -15 8 -8 19 -13
24 -10 5 4 9 -1 9 -9 0 -9 5 -16 10 -16 6 0 10 -8 11 -17 0 -10 3 -13 6 -6 3
8 13 4 31 -13 15 -13 34 -31 43 -39 9 -8 21 -15 27 -15 7 0 12 -4 12 -10 0 -5
6 -10 14 -10 8 0 22 -10 31 -22 8 -13 18 -22 20 -20 13 6 35 1 33 -8 -2 -6 17
-21 42 -34 25 -13 44 -28 43 -34 -1 -6 9 -9 22 -8 13 2 23 -2 22 -8 -1 -6 4
-10 11 -8 6 1 12 -2 12 -8 0 -5 7 -10 15 -10 8 0 15 -4 15 -10 0 -5 7 -10 16
-10 9 0 29 -9 45 -21 16 -11 29 -17 29 -12 0 4 5 0 11 -9 5 -10 17 -18 24 -18
8 0 15 -6 15 -12 0 -9 4 -8 10 2 8 13 10 12 10 -2 0 -10 5 -18 11 -18 5 0 7 5
3 11 -3 6 5 3 20 -6 14 -10 26 -21 26 -25 0 -4 7 -11 16 -14 10 -4 13 -2 8 7
-9 13 26 -12 38 -28 5 -6 8 -4 9 5 0 10 3 8 9 -5 6 -13 9 -15 9 -5 1 10 4 11
9 3 4 -6 14 -13 22 -15 8 -2 20 -10 27 -18 11 -13 12 -13 13 0 0 12 3 11 11
-3 5 -9 21 -17 35 -17 17 0 23 -4 18 -12 -5 -8 0 -9 14 -6 16 5 22 2 22 -10 0
-10 3 -13 8 -7 9 13 35 19 28 6 -3 -5 14 -15 39 -22 25 -7 45 -17 45 -22 0 -4
5 -5 10 -2 6 4 22 -1 37 -10 14 -10 22 -12 18 -4 -6 9 -4 10 6 3 14 -9 19 -10
40 -13 5 0 8 -5 5 -9 -3 -5 11 -8 30 -7 19 0 40 -5 46 -12 6 -7 23 -13 39 -13
16 0 29 -4 29 -9 0 -6 8 -8 19 -6 10 2 31 -3 45 -10 16 -9 24 -10 20 -3 -4 6
3 4 16 -5 17 -12 28 -13 42 -6 13 7 18 7 16 -2 -2 -9 13 -13 49 -13 28 -1 49
-4 46 -9 -2 -4 1 -8 6 -8 26 -3 30 -4 36 -11 4 -4 16 -3 26 3 12 6 19 6 19 0
0 -5 9 -7 20 -4 11 3 27 0 35 -7 8 -7 21 -10 29 -7 7 3 19 0 25 -6 8 -8 11 -8
11 1 0 10 5 10 20 2 15 -8 20 -8 20 2 0 10 3 9 9 -1 6 -10 31 -15 74 -17 36
-1 71 -5 78 -10 8 -5 10 -3 4 6 -6 10 -4 11 11 6 10 -5 29 -10 41 -11 12 -2
27 -6 32 -10 6 -3 11 -2 11 2 0 5 9 9 20 9 11 0 20 -3 20 -7 0 -9 21 -6 38 4
7 5 12 3 12 -3 0 -6 5 -8 13 -3 18 11 37 13 37 2 0 -5 12 -4 27 2 20 7 28 6
35 -3 6 -10 8 -10 8 2 0 12 2 12 9 2 11 -18 12 -18 39 -3 15 8 22 8 22 1 0 -7
7 -7 21 1 16 8 20 8 14 -1 -6 -9 -2 -9 14 -1 15 8 21 9 21 1 0 -6 5 -8 13 -3
24 15 147 22 147 8 0 -6 3 -6 8 1 4 6 15 10 25 8 9 -1 17 1 17 6 0 4 18 7 40
6 22 -1 40 3 40 8 0 6 5 4 10 -4 7 -10 10 -11 10 -2 0 8 9 11 26 8 15 -3 37 2
52 12 19 12 24 13 17 3 -6 -11 -4 -13 11 -7 10 4 33 10 49 12 17 2 36 5 43 6
6 1 12 6 12 12 0 6 5 4 10 -4 6 -10 10 -11 10 -2 0 6 5 12 11 12 5 0 7 -6 3
-12 -6 -10 -5 -10 8 -1 8 7 19 9 23 5 5 -4 5 -1 0 7 -6 11 -2 13 19 9 14 -3
26 -2 26 3 0 4 11 6 25 5 14 -2 22 1 18 6 -3 6 3 7 16 3 16 -5 21 -2 21 12 0
10 4 14 8 8 9 -13 44 -16 36 -3 -4 6 4 8 17 7 13 -2 34 2 46 9 12 7 29 12 38
12 9 0 13 5 10 10 -4 6 -3 10 2 9 26 -5 53 2 47 12 -5 8 -1 8 14 0 16 -8 24
-8 34 2 7 8 18 12 25 10 6 -2 14 0 17 6 4 6 14 7 23 4 11 -4 14 -3 9 6 -5 8
-3 11 5 10 8 -2 28 5 46 14 18 9 41 17 53 17 11 0 20 5 20 12 0 6 3 8 6 5 4
-3 16 -1 28 5 11 7 25 12 29 13 4 0 12 7 17 15 9 13 10 13 10 0 1 -11 4 -10
15 4 11 14 15 16 15 5 1 -10 3 -9 11 4 5 9 19 17 29 17 10 0 22 5 25 10 4 6
11 8 16 5 5 -4 9 -1 9 5 0 7 7 9 16 6 8 -3 12 -2 9 4 -3 6 3 10 14 10 12 0 21
5 21 10 0 6 7 10 15 10 8 0 15 6 15 13 0 8 4 7 10 -3 8 -13 10 -12 10 3 0 10
8 17 21 17 13 0 18 4 13 12 -5 8 -2 9 9 5 10 -3 17 -2 17 4 0 6 5 7 10 4 6 -3
10 -1 10 6 0 7 3 10 6 6 3 -3 14 2 25 11 11 9 22 15 26 14 3 -2 9 1 13 8 4 6
16 12 28 13 11 0 20 4 20 7 -2 20 4 30 13 25 6 -4 17 1 25 11 9 11 13 13 9 4
-4 -9 0 -7 9 4 8 10 20 15 27 10 8 -4 10 -3 5 4 -7 11 6 17 27 13 5 -1 6 3 3
8 -3 5 2 15 11 22 14 12 16 12 9 -1 -4 -8 2 -4 14 10 12 14 18 19 14 11 -5 -9
-3 -12 4 -7 7 4 12 14 12 23 0 13 3 13 16 3 11 -10 14 -10 12 -1 -2 6 11 19
27 29 17 9 34 23 38 30 5 7 13 10 18 6 5 -3 8 0 7 7 -2 7 3 13 10 14 7 0 17 7
22 15 5 8 10 12 10 8 0 -9 46 37 59 59 8 14 11 15 11 3 0 -10 7 -7 21 10 11
14 17 18 13 10 -4 -8 12 5 36 30 23 25 48 44 54 42 6 -2 8 0 4 4 -11 10 32 45
46 37 6 -3 8 -3 4 1 -7 9 33 52 44 49 5 -2 8 2 8 7 0 14 37 50 44 42 3 -3 6 0
6 7 0 14 30 47 31 34 0 -4 4 2 10 15 5 13 13 20 19 17 5 -3 10 0 10 8 0 8 7
17 15 21 8 3 15 12 15 20 0 7 7 17 16 20 9 3 12 11 8 18 -5 8 -2 9 9 5 12 -5
17 -1 17 12 0 10 7 22 16 25 8 3 13 10 9 15 -3 5 4 12 15 16 11 3 20 13 20 21
0 8 8 14 18 14 14 0 15 2 2 10 -13 8 -12 10 3 10 16 0 22 12 18 34 -1 5 5 6
14 2 11 -4 15 -2 13 6 -3 7 6 22 19 34 12 11 20 24 16 27 -3 4 -1 7 5 7 7 0
12 7 12 15 0 8 8 15 18 15 14 0 15 2 2 10 -13 8 -13 10 2 10 10 0 22 10 29 21
9 17 8 20 -3 14 -7 -5 0 4 15 18 15 15 25 32 22 37 -3 6 1 10 9 10 9 0 16 7
16 16 0 8 4 12 10 9 6 -3 7 1 4 9 -3 9 -1 16 5 16 6 0 11 7 11 15 0 8 5 15 11
15 5 0 8 4 5 8 -3 5 4 19 15 31 12 12 18 25 15 28 -3 3 5 14 17 25 12 11 15
16 7 12 -13 -7 -13 -5 -1 9 7 9 17 14 22 11 5 -3 6 3 2 12 -5 13 -3 15 7 9 9
-6 11 -4 6 4 -5 7 0 19 10 27 11 9 13 13 7 9 -9 -4 -11 -1 -7 9 3 9 10 13 15
10 5 -3 6 1 4 9 -3 7 3 24 14 36 12 13 18 28 15 32 -3 5 0 9 5 9 6 0 11 7 11
16 0 8 4 13 9 10 4 -3 7 6 5 19 -1 14 2 23 7 19 5 -3 9 4 9 16 0 12 4 18 10
15 6 -3 7 1 4 9 -4 9 -1 16 6 16 7 0 10 7 6 16 -3 8 -2 12 4 9 6 -3 10 2 10
12 0 11 6 25 13 32 9 11 9 12 0 7 -9 -5 -11 -2 -7 8 3 9 10 16 16 16 5 0 7 4
3 9 -3 5 -1 12 5 16 6 4 8 10 5 15 -3 4 2 11 11 14 9 4 14 13 10 21 -3 8 -1
15 4 15 5 0 7 9 5 20 -2 13 2 20 11 20 8 0 12 4 9 10 -3 5 -1 18 4 29 8 14 8
21 -2 24 -7 3 -4 6 6 6 10 1 16 5 12 10 -3 5 -1 12 4 16 6 3 7 13 4 22 -4 9
-2 14 3 11 5 -4 10 8 11 25 1 17 8 34 15 39 7 4 10 8 5 8 -4 0 -1 15 6 33 8
17 12 38 10 45 -3 6 -1 12 5 12 5 0 9 6 9 13 0 6 4 28 8 47 4 19 7 43 7 53 -1
10 4 15 10 11 8 -5 9 -1 4 11 -4 11 -2 22 6 26 9 6 9 11 -1 23 -10 12 -10 16
-2 16 7 0 9 5 6 10 -3 6 -1 10 6 10 7 0 9 3 6 6 -3 4 -2 16 4 27 9 15 8 18 -2
12 -8 -5 -10 -4 -5 3 9 15 18 52 18 75 -1 9 3 17 8 17 9 0 8 26 -3 36 -3 4 -2
15 4 26 6 11 8 26 5 34 -4 10 -2 12 6 8 8 -5 9 -2 5 9 -3 9 -2 19 4 23 7 4 6
10 -1 19 -8 9 -8 15 0 20 6 3 8 10 5 15 -3 5 -1 11 5 15 6 4 7 12 1 24 -5 9
-6 23 -1 31 4 7 6 20 2 28 -4 11 -1 13 9 7 11 -6 12 -5 2 6 -16 17 -17 43 -1
33 7 -5 8 -3 2 7 -13 21 -13 139 0 132 6 -4 5 1 -3 10 -11 14 -11 17 0 17 9 0
10 3 4 8 -15 11 -17 84 -2 76 8 -5 8 -3 0 7 -16 16 -17 33 -1 23 7 -5 8 -3 2
7 -13 21 -14 39 -1 39 8 0 8 3 2 8 -14 10 -15 133 -1 125 6 -4 5 1 -3 10 -11
14 -11 17 0 17 9 0 10 3 4 8 -15 10 -15 72 -1 72 7 0 7 3 -1 8 -7 4 -13 30
-14 57 -1 28 -4 55 -8 60 -3 6 -6 19 -6 30 0 11 -4 26 -9 34 -7 10 -6 12 3 6
10 -6 11 -3 2 14 -7 11 -9 21 -5 21 3 0 2 6 -4 13 -7 8 -7 18 -2 27 5 9 5 19
-2 27 -5 7 -8 20 -4 28 3 8 2 15 -3 15 -5 0 -9 11 -10 25 -1 14 -2 36 -3 50
-1 15 -8 25 -17 25 -10 0 -12 3 -6 8 13 9 17 32 6 32 -5 0 -7 13 -6 30 1 16
-1 27 -6 25 -4 -3 -10 -1 -14 5 -3 5 0 10 7 10 8 0 9 3 3 8 -5 4 -11 14 -11
22 -3 37 -10 65 -16 70 -4 3 -8 20 -10 38 -1 18 -6 32 -10 32 -4 0 -8 8 -8 18
0 10 -6 24 -12 31 -10 11 -10 12 -1 7 9 -5 11 -2 7 8 -3 9 -11 16 -18 16 -6 0
-4 5 4 10 11 7 11 10 2 10 -7 0 -10 5 -7 10 3 6 1 10 -5 10 -6 0 -9 4 -6 8 3
5 -2 21 -10 36 -7 16 -14 35 -14 42 0 8 -4 14 -8 14 -5 0 -9 6 -9 13 -1 24 -8
42 -23 54 -13 11 -13 12 0 13 12 1 12 3 -2 14 -10 7 -15 16 -11 19 3 4 1 7 -5
7 -6 0 -9 7 -6 15 4 8 1 15 -6 15 -6 0 -9 4 -5 9 7 12 -15 61 -27 61 -5 0 -7
4 -4 8 3 5 -4 23 -15 40 -10 18 -19 39 -19 47 0 8 -5 15 -11 15 -5 0 -8 4 -4
9 3 5 1 12 -5 16 -6 4 -8 11 -5 16 4 5 -1 9 -10 9 -9 0 -13 5 -10 11 4 5 0 18
-8 27 -9 9 -17 22 -19 27 -2 6 -6 9 -9 8 -4 -1 -5 7 -2 17 3 11 0 20 -6 20 -6
0 -11 7 -11 15 0 8 -4 15 -10 15 -5 0 -10 7 -10 15 0 8 -4 15 -10 15 -5 0 -9
3 -9 8 3 19 -2 33 -11 27 -5 -3 -10 3 -10 14 0 12 -4 21 -9 21 -9 0 -24 38
-22 53 1 5 -3 5 -9 2 -7 -4 -14 2 -17 14 -3 12 -9 21 -14 21 -5 0 -9 7 -9 15
0 8 -5 15 -11 15 -5 0 -7 5 -4 10 3 6 1 10 -5 10 -6 0 -8 5 -5 10 3 6 -1 10
-10 10 -9 0 -14 4 -11 8 3 5 -4 15 -15 22 -21 16 -26 35 -6 25 6 -4 1 3 -13
15 -14 12 -25 27 -25 34 -1 6 -6 10 -13 9 -6 -2 -9 4 -6 12 4 10 0 15 -12 15
-9 0 -15 3 -11 6 3 3 -8 20 -24 36 -16 17 -29 37 -29 44 0 7 -9 16 -20 19 -11
4 -18 10 -15 15 3 5 -3 13 -12 19 -10 6 -15 11 -10 11 4 0 -13 19 -38 43 -25
24 -45 47 -45 51 0 12 -27 36 -34 29 -3 -4 -6 1 -6 11 0 9 -4 14 -10 11 -5 -3
-10 1 -10 9 0 8 -9 17 -19 21 -12 4 -18 12 -14 21 4 10 0 12 -11 8 -11 -4 -16
-1 -16 11 0 9 -4 13 -10 10 -5 -3 -10 1 -10 9 0 9 -7 16 -17 16 -9 0 -14 3
-10 6 7 7 -17 34 -31 34 -5 0 -16 8 -23 18 -13 16 -13 16 6 2 19 -14 19 -14 6
3 -7 9 -20 17 -28 17 -8 0 -11 5 -8 10 3 6 -4 10 -16 10 -12 0 -20 3 -16 6 7
8 -22 39 -37 39 -6 1 -10 6 -9 12 2 7 -6 15 -17 18 -11 4 -20 11 -20 16 0 5
-3 8 -7 7 -14 -3 -43 14 -38 22 3 4 -6 11 -19 14 -14 3 -28 15 -31 26 -3 11
-14 20 -23 20 -10 0 -24 9 -32 20 -8 11 -20 20 -26 20 -7 0 -15 7 -18 16 -3 8
-10 13 -15 9 -6 -3 -15 4 -21 15 -6 11 -16 20 -22 20 -7 0 -23 10 -36 23 -14
12 -22 16 -18 10 11 -19 -1 -16 -23 6 -11 11 -17 22 -14 25 3 3 -4 4 -16 1
-13 -2 -21 1 -21 10 0 9 -6 12 -17 8 -10 -4 -14 -2 -10 4 4 6 -9 17 -31 26
-21 8 -44 22 -51 31 -8 9 -22 16 -32 16 -11 0 -19 3 -19 8 0 4 -12 16 -27 26
-16 12 -23 14 -18 5 5 -8 -8 -1 -30 15 -21 16 -35 23 -31 15 5 -9 3 -8 -6 2
-7 9 -19 14 -25 12 -7 -3 -13 1 -13 7 0 7 -7 10 -15 6 -9 -3 -15 0 -15 10 0 9
-6 14 -12 11 -7 -2 -19 3 -26 12 -8 9 -11 10 -7 4 3 -7 1 -13 -4 -13 -6 0 -11
5 -11 11 0 5 -5 7 -10 4 -6 -3 -13 0 -16 9 -3 8 -12 12 -20 9 -8 -3 -14 0 -14
7 0 6 -4 8 -10 5 -5 -3 -10 -1 -10 4 0 6 -9 11 -20 11 -11 0 -20 4 -20 9 0 5
-8 8 -17 7 -10 -2 -21 1 -24 6 -3 5 -16 10 -28 13 -13 2 -30 10 -39 17 -13 11
-14 11 -7 -2 5 -10 1 -9 -13 3 -11 11 -25 16 -31 13 -5 -4 -14 2 -20 11 -8 14
-10 15 -11 3 0 -13 -1 -13 -10 0 -5 8 -10 11 -10 5 0 -5 -4 -4 -9 4 -5 7 -20
14 -35 14 -14 0 -26 2 -26 6 0 4 -8 8 -17 9 -32 3 -48 8 -70 20 -28 15 -36 15
-27 0 5 -8 1 -7 -10 2 -10 8 -23 15 -30 16 -6 2 -22 6 -36 9 -14 4 -35 8 -47
9 -12 1 -26 6 -30 10 -5 5 -2 6 6 1 10 -6 12 -4 7 4 -6 9 -11 9 -23 -1 -12
-10 -17 -9 -25 6 -7 13 -13 14 -23 6 -9 -8 -15 -8 -20 0 -3 6 -11 8 -16 5 -5
-4 -9 0 -9 7 0 9 -3 9 -10 -2 -8 -12 -10 -12 -10 -1 0 8 -3 11 -6 8 -4 -3 -15
-2 -25 4 -14 7 -19 6 -19 -2 0 -8 -4 -8 -15 1 -8 7 -15 9 -15 6 0 -4 -10 -2
-21 5 -17 9 -20 8 -14 -2 6 -8 4 -10 -6 -3 -16 10 -32 13 -76 16 -18 0 -33 4
-33 8 0 10 -55 7 -62 -4 -5 -7 -8 -7 -8 -1 0 6 -10 11 -22 12 -11 1 -25 8 -29
15 -7 10 -9 10 -9 1 0 -7 -7 -13 -16 -13 -9 0 -12 5 -8 12 5 7 3 8 -7 2 -17
-10 -59 -14 -59 -5 0 4 -9 7 -20 8 -11 1 -18 -2 -16 -6 3 -4 -1 -8 -9 -8 -8 0
-12 3 -10 7 5 8 -147 6 -161 -3 -6 -3 -14 -4 -18 0 -10 11 -145 10 -139 -1 4
-5 1 -6 -8 -1 -18 12 -69 14 -75 3 -3 -5 -12 -3 -21 3 -11 10 -16 10 -22 0 -6
-9 -15 -9 -35 -1 -25 9 -27 8 -22 -6z m46 -169 c0 6 46 10 119 10 66 0 117 -4
114 -8 -3 -5 3 -5 13 0 22 11 187 9 205 -3 7 -4 9 -3 6 3 -9 14 52 14 77 1 24
-13 66 -15 84 -4 7 4 12 3 12 -1 0 -5 20 -10 44 -10 25 -1 54 -6 65 -12 13 -7
22 -8 26 -1 3 5 11 10 16 10 6 0 7 -5 4 -10 -4 -7 3 -9 19 -6 14 3 30 -2 36
-10 9 -10 17 -11 30 -4 11 6 21 6 24 1 3 -5 19 -8 35 -7 17 1 27 -2 24 -8 -4
-5 3 -7 15 -4 12 4 22 3 22 -1 0 -4 6 -8 13 -9 6 -1 26 -4 42 -6 17 -2 41 -8
55 -14 14 -5 28 -8 33 -5 4 2 7 -1 7 -8 0 -8 4 -8 15 1 8 7 15 9 15 4 0 -5 11
-14 25 -21 19 -8 23 -8 18 0 -4 8 -2 8 9 0 8 -7 18 -10 21 -6 4 3 7 1 7 -6 0
-7 5 -9 10 -6 6 4 17 1 25 -5 8 -7 15 -9 15 -5 0 4 7 2 15 -5 8 -7 15 -9 15
-4 0 5 5 2 10 -6 7 -11 10 -11 10 -2 0 7 5 10 10 7 6 -4 8 -10 5 -14 -2 -5 7
-6 22 -3 16 3 24 1 20 -5 -6 -9 22 -19 71 -25 6 -1 12 -6 12 -11 0 -6 3 -7 7
-4 3 4 12 -1 19 -11 8 -10 13 -12 14 -5 0 17 50 -2 68 -24 9 -13 12 -14 12 -2
0 9 8 5 21 -11 11 -14 18 -20 15 -13 -5 8 2 8 21 -2 15 -8 34 -15 41 -15 7 0
11 -4 8 -9 -3 -5 1 -12 10 -15 10 -4 13 -2 8 6 -8 13 12 3 38 -20 9 -7 21 -11
26 -8 6 3 12 -1 16 -9 3 -8 12 -15 21 -15 8 0 15 -4 15 -9 0 -5 16 -12 36 -15
19 -4 38 -14 41 -22 3 -7 9 -14 15 -14 5 0 16 -7 25 -15 8 -8 19 -13 24 -10 5
4 9 1 9 -4 0 -6 7 -11 15 -11 8 0 15 -4 15 -10 0 -5 9 -10 21 -10 13 0 18 -4
13 -12 -5 -8 -2 -9 9 -5 11 4 17 1 17 -8 0 -8 8 -15 19 -15 22 0 44 -23 33
-36 -4 -5 -3 -6 2 -2 5 4 16 2 24 -5 13 -10 14 -9 7 3 -4 8 1 6 12 -5 11 -11
18 -24 15 -30 -3 -5 -2 -7 3 -3 4 4 14 3 22 -3 7 -6 13 -8 13 -4 0 4 14 -7 30
-25 17 -18 30 -28 30 -24 1 5 10 -2 21 -16 12 -14 24 -24 28 -24 3 1 5 -2 4
-7 -2 -4 5 -5 14 -2 11 4 14 3 9 -5 -4 -7 -1 -12 8 -12 9 0 16 -4 16 -9 0 -5
9 -11 21 -14 13 -4 18 -10 13 -18 -4 -7 -3 -10 3 -6 13 8 36 -17 25 -28 -4 -5
-2 -5 4 -2 6 3 22 -4 35 -16 13 -12 27 -21 31 -20 4 2 5 -4 1 -13 -3 -8 -2
-14 3 -13 20 3 35 -1 30 -10 -3 -4 12 -23 34 -41 22 -18 42 -42 46 -52 3 -10
9 -16 14 -13 5 3 14 -4 20 -15 6 -11 15 -18 21 -15 5 4 9 2 9 -3 0 -15 61 -77
73 -74 7 2 9 1 5 -3 -4 -4 4 -17 18 -30 13 -12 24 -28 24 -34 0 -7 5 -9 10 -6
6 3 10 0 10 -7 0 -8 9 -20 19 -28 11 -7 18 -17 15 -22 -3 -4 2 -11 10 -14 9
-3 16 -15 16 -26 0 -11 13 -26 30 -36 16 -9 35 -29 41 -44 6 -15 16 -25 22
-21 6 3 7 1 3 -6 -5 -7 3 -22 19 -37 15 -14 25 -28 22 -31 -4 -3 4 -14 16 -24
12 -10 18 -18 14 -19 -4 0 4 -12 18 -26 14 -14 23 -30 20 -35 -4 -5 -1 -9 4
-9 6 0 11 -6 11 -14 0 -8 7 -16 15 -20 9 -3 12 -12 8 -22 -5 -13 -3 -16 10
-11 9 3 16 3 15 -1 -4 -14 13 -52 23 -52 6 0 7 -4 4 -10 -3 -5 -1 -10 5 -10 6
0 9 -4 5 -10 -3 -5 3 -18 15 -30 11 -11 19 -21 19 -22 -6 -11 15 -47 23 -42 7
5 9 1 5 -9 -3 -10 -2 -17 2 -17 5 0 12 -7 15 -16 4 -10 2 -13 -7 -9 -6 4 -5 1
3 -7 8 -7 15 -19 16 -25 2 -30 5 -34 16 -27 8 5 9 2 5 -9 -4 -12 -1 -17 11
-17 15 0 15 -2 2 -10 -10 -6 -11 -10 -2 -10 6 0 12 -7 12 -16 0 -8 4 -13 9
-10 5 4 7 -4 3 -16 -3 -14 -1 -19 6 -14 8 5 10 2 6 -8 -4 -10 -1 -16 7 -16 7
0 9 -3 6 -7 -4 -3 1 -15 10 -26 10 -11 12 -17 6 -13 -7 4 -13 2 -13 -3 0 -6 5
-11 11 -11 5 0 8 -4 4 -9 -3 -5 2 -16 10 -24 11 -12 12 -17 2 -20 -7 -3 -4 -6
6 -6 10 -1 15 -6 12 -11 -4 -6 -2 -17 4 -24 6 -7 12 -25 13 -40 1 -14 6 -26
10 -26 4 0 8 -9 8 -21 0 -11 4 -18 8 -15 5 3 9 -1 9 -9 0 -8 -5 -11 -11 -8 -6
4 -2 -4 9 -17 12 -14 14 -20 5 -15 -9 5 -7 -1 5 -15 12 -14 14 -20 5 -15 -11
6 -10 3 3 -12 9 -11 14 -23 11 -26 -4 -4 -1 -13 6 -22 7 -8 10 -21 7 -30 -4
-8 -2 -17 4 -21 6 -3 8 -13 5 -21 -4 -8 -1 -11 5 -8 6 4 9 1 8 -6 -1 -8 3 -27
9 -42 15 -36 15 -40 0 -32 -7 4 -5 0 5 -8 10 -8 13 -17 8 -18 -7 -3 -6 -14 4
-31 9 -18 10 -28 3 -28 -6 0 -3 -9 6 -19 12 -13 14 -20 5 -23 -8 -3 -7 -8 4
-19 9 -10 12 -21 7 -29 -5 -8 -2 -23 7 -37 12 -19 13 -23 2 -24 -9 0 -10 -2
-3 -5 7 -3 10 -14 7 -24 -3 -11 -1 -20 5 -20 6 0 9 -15 6 -36 -3 -24 -1 -33 7
-28 8 4 9 0 4 -15 -4 -13 -2 -21 5 -21 6 0 8 -5 3 -12 -11 -18 -14 -48 -5 -48
11 0 9 -104 -2 -112 -7 -5 -7 -8 -1 -8 6 0 11 -12 12 -27 4 -52 8 -68 18 -75
6 -5 5 -8 -4 -8 -11 0 -11 -3 -1 -15 7 -8 8 -15 3 -15 -9 0 -10 -22 -3 -55 1
-5 1 -14 0 -20 -6 -25 -4 -41 5 -47 6 -5 5 -8 -4 -8 -11 0 -11 -3 -1 -15 7 -8
8 -15 3 -15 -10 0 -9 -47 1 -57 3 -3 -1 -17 -8 -32 -7 -14 -11 -32 -8 -40 2
-7 -2 -17 -9 -22 -8 -5 -9 -9 -3 -9 13 0 12 -59 -1 -80 -6 -9 -4 -11 5 -5 8 5
11 4 6 -3 -12 -20 -14 -72 -2 -72 6 0 4 -5 -4 -10 -8 -5 -11 -10 -6 -10 5 0 2
-8 -5 -17 -9 -11 -10 -14 -2 -9 9 5 11 2 7 -8 -3 -9 -11 -13 -17 -9 -6 4 -7 1
-1 -8 12 -19 12 -30 1 -52 -5 -12 -4 -23 4 -33 10 -12 9 -13 -4 -9 -12 5 -15
0 -12 -27 1 -18 -2 -38 -7 -45 -5 -7 -7 -17 -3 -23 3 -5 0 -10 -7 -11 -10 0
-10 -2 0 -6 6 -2 12 -9 12 -14 0 -6 -5 -7 -12 -3 -8 5 -9 2 -5 -9 3 -10 2 -17
-3 -17 -5 0 -7 -7 -4 -15 4 -8 2 -15 -3 -15 -5 0 -8 -13 -7 -30 1 -16 -2 -30
-8 -30 -5 0 -6 -4 -3 -10 3 -5 1 -10 -6 -10 -8 0 -8 -4 1 -15 9 -11 9 -15 1
-15 -7 0 -10 -4 -6 -9 3 -5 1 -12 -5 -16 -6 -4 -8 -11 -5 -16 4 -5 2 -9 -3 -9
-5 0 -7 -11 -4 -25 3 -16 0 -25 -9 -25 -7 0 -10 -3 -6 -6 3 -4 0 -21 -8 -39
-7 -19 -11 -36 -8 -38 2 -3 -3 -16 -11 -29 -9 -14 -13 -28 -9 -31 3 -4 1 -7
-5 -7 -6 0 -9 -7 -6 -15 4 -8 1 -15 -6 -15 -7 0 -10 -7 -6 -15 3 -8 1 -15 -5
-15 -6 0 -7 -4 -4 -10 3 -5 0 -10 -7 -10 -10 0 -9 -3 2 -10 12 -8 12 -10 -3
-16 -10 -4 -16 -13 -13 -20 3 -8 1 -14 -4 -14 -5 0 -7 -9 -5 -19 3 -15 -1 -18
-12 -14 -12 5 -14 1 -9 -15 4 -11 3 -23 -3 -26 -5 -3 -8 -14 -7 -24 2 -9 -2
-20 -8 -24 -6 -4 -11 -13 -11 -20 -1 -7 -6 -12 -13 -11 -6 2 -9 -4 -6 -12 4
-8 1 -15 -5 -15 -6 0 -8 -7 -4 -17 4 -10 2 -14 -5 -9 -7 4 -13 -6 -18 -29 -3
-19 -9 -35 -13 -35 -4 0 -13 -16 -20 -35 -7 -19 -18 -35 -24 -35 -7 0 -6 -4 3
-10 13 -8 12 -10 -3 -10 -10 0 -16 -4 -12 -9 3 -5 -2 -16 -10 -24 -18 -19 -20
-30 -2 -22 6 3 2 -2 -10 -11 -13 -9 -23 -21 -23 -27 0 -5 -8 -16 -17 -24 -12
-10 -13 -12 -3 -8 8 4 7 0 -4 -9 -10 -8 -16 -22 -13 -30 4 -9 1 -15 -5 -13 -7
1 -12 -4 -13 -11 0 -7 -7 -17 -15 -22 -8 -5 -11 -10 -5 -10 5 0 -1 -7 -13 -16
-14 -9 -21 -22 -18 -31 3 -8 1 -11 -4 -8 -9 6 -14 -8 -11 -27 0 -5 -3 -8 -8
-8 -5 0 -12 -8 -16 -19 -3 -10 -15 -23 -28 -29 -12 -6 -16 -11 -8 -11 8 -1 2
-13 -17 -31 -18 -17 -29 -30 -27 -30 3 0 -3 -10 -14 -22 -11 -11 -18 -26 -14
-31 3 -6 1 -7 -5 -3 -7 4 -12 1 -12 -8 0 -8 -9 -20 -20 -26 -11 -6 -20 -18
-20 -26 0 -8 -4 -12 -10 -9 -5 3 -10 -1 -10 -10 0 -8 -7 -18 -15 -21 -8 -4
-12 -10 -9 -15 3 -5 -2 -9 -10 -9 -9 0 -15 -6 -13 -12 1 -7 -4 -12 -11 -10 -8
1 -11 -2 -8 -7 3 -5 -6 -19 -21 -31 -16 -12 -21 -18 -13 -14 8 4 4 -4 -10 -17
-13 -13 -25 -22 -25 -19 0 3 -8 -2 -17 -10 -9 -8 -15 -19 -15 -25 1 -5 -4 -9
-10 -8 -7 2 -13 -4 -13 -12 0 -8 -6 -15 -14 -15 -8 0 -18 -5 -22 -12 -5 -7 -2
-8 7 -3 8 4 4 -2 -8 -14 -12 -11 -27 -21 -33 -21 -5 0 -9 -6 -7 -12 1 -7 -4
-12 -10 -11 -7 2 -13 -3 -13 -10 0 -15 -36 -48 -44 -40 -3 4 -6 -1 -6 -9 0 -9
-9 -18 -21 -21 -14 -4 -18 -10 -13 -19 6 -9 2 -9 -12 2 -10 8 -16 10 -12 6 8
-10 -31 -43 -45 -38 -5 1 -7 -1 -4 -5 2 -5 -9 -20 -24 -35 -16 -15 -29 -25
-29 -22 0 3 -6 -1 -14 -8 -8 -7 -11 -17 -8 -22 3 -5 -5 -6 -17 -3 -13 3 -20 3
-17 0 3 -3 -2 -12 -12 -20 -9 -8 -11 -11 -3 -7 9 5 12 3 7 -5 -4 -6 -11 -9
-16 -6 -4 2 -19 -4 -32 -15 -14 -11 -29 -16 -32 -12 -4 4 -6 3 -4 -3 2 -5 1
-10 -2 -10 -14 -2 -48 -40 -43 -48 3 -6 1 -7 -4 -4 -6 4 -16 0 -23 -8 -6 -7
-17 -12 -25 -9 -7 3 -20 -5 -29 -18 -9 -13 -17 -21 -19 -18 -1 3 -20 -6 -42
-19 -22 -14 -44 -25 -50 -26 -5 0 -9 -7 -7 -15 2 -8 0 -12 -4 -8 -4 4 -14 2
-22 -5 -13 -10 -15 -9 -8 3 4 8 0 6 -8 -4 -9 -11 -23 -21 -31 -22 -8 -1 -22
-9 -31 -18 -14 -15 -28 -20 -46 -17 -5 0 -8 -4 -8 -10 0 -5 -4 -7 -10 -4 -5 3
-10 2 -10 -3 0 -9 -37 -25 -52 -23 -5 1 -8 -4 -8 -10 0 -6 -7 -8 -16 -5 -8 3
-12 2 -9 -4 5 -9 -15 -15 -37 -11 -5 0 -8 -4 -8 -10 0 -6 -7 -8 -16 -5 -8 3
-12 2 -9 -4 6 -9 -8 -14 -20 -7 -2 1 -11 -7 -20 -18 -9 -11 -14 -14 -10 -8 7
14 -15 8 -50 -13 -11 -6 -33 -15 -48 -18 -17 -4 -25 -11 -21 -18 4 -7 3 -8 -4
-4 -7 4 -18 4 -24 -1 -16 -9 -37 -14 -61 -14 -9 0 -15 -4 -13 -8 3 -4 -8 -12
-25 -18 -22 -9 -27 -8 -22 0 5 8 2 8 -8 0 -9 -7 -26 -14 -40 -17 -13 -2 -23
-9 -21 -15 2 -9 -3 -9 -16 -2 -13 7 -23 6 -31 -2 -6 -6 -17 -12 -24 -13 -45
-3 -96 -18 -90 -27 3 -5 1 -7 -5 -3 -6 3 -14 2 -17 -4 -5 -8 -11 -7 -21 1 -9
7 -14 8 -14 1 0 -6 -8 -9 -17 -7 -10 1 -24 -3 -32 -9 -12 -9 -13 -8 -6 4 8 12
5 12 -16 -1 -19 -13 -30 -14 -43 -7 -14 8 -17 7 -12 -1 4 -6 0 -12 -8 -12 -15
-1 -26 -4 -43 -9 -5 -1 -23 -2 -40 -2 -18 0 -33 -5 -33 -10 0 -6 -7 -7 -16 -4
-9 3 -21 3 -27 -1 -18 -11 -57 -10 -57 2 0 7 -3 7 -8 0 -7 -11 -48 -17 -117
-19 -22 0 -43 -5 -47 -11 -5 -7 -8 -6 -8 1 0 6 -10 10 -22 8 -13 -1 -23 -3
-23 -4 0 -1 -8 -3 -17 -5 -10 -2 -18 2 -18 8 0 8 -3 7 -9 -1 -4 -8 -12 -14
-16 -14 -4 0 -12 6 -16 14 -6 8 -9 9 -9 1 0 -12 -24 -12 -36 0 -4 3 -12 3 -18
0 -19 -12 -36 -12 -36 0 0 8 -3 7 -9 -1 -4 -8 -12 -14 -16 -14 -4 0 -12 6 -16
14 -5 7 -9 8 -9 2 0 -14 -30 -14 -30 0 0 7 -3 8 -8 1 -9 -14 -45 -14 -54 0 -5
6 -8 6 -8 -2 0 -12 -24 -12 -36 0 -4 4 -13 2 -20 -4 -8 -7 -14 -7 -19 1 -5 8
-11 8 -21 -1 -11 -9 -14 -9 -14 0 0 14 -32 11 -42 -4 -5 -6 -8 -6 -8 1 0 6
-11 12 -25 12 -14 0 -25 -6 -25 -12 0 -7 -3 -7 -8 -1 -9 13 -30 19 -64 18 -16
0 -28 4 -28 10 0 5 -7 4 -15 -3 -11 -9 -15 -9 -15 -1 0 9 -5 9 -21 0 -15 -8
-19 -8 -15 0 4 6 0 12 -8 12 -25 2 -30 4 -45 13 -10 6 -12 5 -7 -2 10 -16 -7
-15 -23 1 -11 10 -12 9 -6 -2 6 -10 4 -12 -6 -5 -16 10 -35 14 -66 16 -13 0
-20 4 -17 9 2 4 -9 6 -26 4 -20 -2 -33 2 -40 13 -5 9 -10 12 -10 6 0 -13 -30
-14 -30 -1 0 5 -6 7 -14 4 -8 -3 -17 -1 -20 6 -5 9 -7 9 -12 0 -4 -9 -11 -9
-30 3 -13 9 -24 13 -24 8 0 -4 -5 -3 -11 3 -6 6 -18 9 -25 6 -8 -3 -14 -1 -14
4 0 5 -12 10 -27 11 -15 1 -30 8 -35 15 -4 6 -8 8 -8 3 0 -5 -7 -3 -15 4 -12
10 -15 10 -15 0 0 -9 -3 -10 -13 -1 -8 6 -17 8 -20 4 -4 -3 -7 -1 -7 5 0 7 -9
12 -19 12 -11 0 -23 5 -27 11 -4 8 -9 7 -15 -2 -7 -11 -9 -9 -9 6 0 15 -2 17
-9 6 -7 -11 -11 -10 -19 5 -6 10 -14 16 -18 12 -3 -4 -20 0 -36 8 -16 8 -33
12 -38 9 -5 -3 -7 1 -4 9 4 11 -1 14 -20 12 -14 -2 -26 1 -26 6 0 5 -4 6 -10
3 -5 -3 -10 -1 -10 4 0 6 -9 11 -20 11 -11 0 -20 5 -20 11 0 5 -4 7 -10 4 -5
-3 -10 -1 -10 6 0 7 -3 9 -6 6 -4 -3 -16 -1 -28 5 -11 7 -24 11 -28 10 -5 -1
-8 3 -8 9 0 5 -4 8 -9 4 -5 -3 -13 0 -16 6 -4 5 -14 8 -22 5 -8 -3 -11 -1 -8
4 3 6 -1 10 -10 10 -9 0 -13 4 -10 10 4 6 -1 7 -11 3 -11 -4 -15 -3 -10 5 4 7
-1 10 -14 7 -11 -2 -20 -1 -20 3 0 13 -59 44 -70 37 -6 -3 -10 1 -10 9 0 9 -6
15 -12 13 -7 -1 -12 3 -11 9 1 7 -6 10 -20 7 -18 -4 -19 -3 -7 6 13 9 12 11
-4 11 -10 0 -25 8 -33 18 -8 9 -12 11 -8 5 9 -19 1 -16 -31 12 -16 14 -37 25
-47 25 -10 0 -15 5 -12 10 5 9 -1 12 -21 9 -3 0 -14 9 -23 20 -10 12 -24 21
-30 21 -6 0 -14 7 -17 15 -4 8 -10 12 -15 9 -5 -3 -9 3 -10 13 0 10 -3 13 -5
6 -5 -12 -22 -2 -66 40 -10 9 -22 17 -28 17 -5 0 -15 9 -22 20 -7 11 -19 20
-26 20 -7 0 -10 4 -7 10 3 5 1 10 -6 10 -6 0 -20 10 -30 22 -11 11 -19 18 -19
15 0 -3 -11 4 -24 16 -13 12 -37 33 -54 47 -17 14 -28 28 -25 33 2 4 1 7 -4 6
-4 -1 -17 -1 -28 0 -17 1 -18 3 -5 11 13 9 13 10 -1 10 -8 0 -28 15 -44 34
-16 19 -33 33 -37 30 -4 -3 -8 -1 -8 4 0 5 -16 25 -36 46 -20 20 -32 41 -28
48 4 7 3 8 -4 4 -7 -4 -12 0 -12 10 0 10 -3 15 -6 11 -8 -8 -44 25 -38 35 3 4
-2 8 -10 8 -9 0 -16 7 -16 15 0 8 -7 15 -15 15 -8 0 -15 7 -15 15 0 18 -56 76
-64 67 -3 -3 -6 4 -6 16 0 13 -6 22 -16 22 -8 0 -12 5 -9 10 3 6 1 10 -5 10
-6 0 -8 5 -5 10 3 6 1 10 -4 10 -6 0 -11 7 -11 16 0 8 -3 13 -7 11 -5 -3 -17
7 -28 22 -19 26 -19 26 0 11 11 -8 5 1 -12 19 -18 18 -33 37 -33 42 0 5 -9 18
-21 30 -11 11 -18 27 -15 35 3 9 1 12 -4 9 -5 -3 -15 5 -22 19 -6 14 -16 26
-22 26 -6 0 -4 5 4 10 13 8 13 10 -2 10 -15 0 -35 34 -30 52 1 5 -5 8 -14 8
-8 0 -13 4 -9 9 3 5 -2 17 -11 25 -8 9 -12 16 -8 16 4 0 0 6 -10 13 -9 7 -18
22 -19 34 0 12 -3 20 -6 17 -5 -5 -35 57 -33 69 1 4 -3 7 -8 7 -6 0 -10 5 -10
11 0 6 -7 17 -15 26 -8 8 -13 19 -10 24 4 5 2 9 -2 9 -5 0 -15 20 -22 45 -7
25 -16 43 -20 40 -4 -2 -8 2 -9 10 -1 8 -3 22 -4 30 -1 8 -5 15 -10 15 -4 0
-8 9 -8 21 0 11 -4 18 -9 15 -5 -3 -8 6 -8 21 0 15 -5 29 -11 31 -6 2 -9 9 -6
16 3 8 -2 21 -11 29 -9 9 -16 19 -15 22 2 30 -2 46 -15 58 -8 8 -11 17 -8 21
4 3 0 6 -7 6 -11 0 -11 3 -2 12 15 15 16 31 0 22 -8 -5 -9 -2 -5 9 3 10 2 17
-3 17 -6 0 -9 3 -9 8 3 14 -14 72 -21 72 -3 0 -7 6 -7 13 -3 46 -8 77 -14 77
-4 0 -10 7 -13 16 -4 10 -2 13 7 8 8 -6 8 -3 -1 9 -8 9 -11 21 -7 27 3 5 1 10
-5 10 -6 0 -8 5 -5 10 3 6 0 10 -7 10 -9 0 -9 3 2 10 8 5 10 10 4 10 -6 0 -10
11 -9 25 2 14 -1 25 -6 25 -6 0 -7 4 -4 10 3 6 0 10 -7 10 -10 0 -10 2 1 9 9
6 11 14 3 26 -5 10 -7 26 -5 36 3 11 1 19 -4 19 -5 0 -10 16 -11 36 -1 20 -6
42 -12 49 -8 9 -8 15 0 20 6 4 7 12 1 24 -6 10 -10 26 -10 37 1 23 -7 60 -17
76 -5 7 -2 8 7 3 11 -6 12 -5 1 6 -14 15 -16 33 -2 24 5 -3 5 7 -2 25 -5 17
-8 34 -4 37 3 3 0 13 -7 21 -7 9 -7 13 -1 9 7 -4 11 4 10 23 -1 17 -5 30 -9
30 -5 0 -5 5 -1 12 9 14 8 124 -1 138 -4 6 -1 10 6 10 8 0 7 5 -2 17 -8 9 -9
14 -4 11 11 -6 12 170 1 197 -3 8 0 15 7 16 9 0 9 2 0 6 -10 3 -9 8 2 20 12
11 13 19 5 28 -8 10 -8 19 -1 34 14 25 14 41 1 21 -8 -13 -10 -13 -10 2 0 9 5
20 11 23 6 4 8 13 5 21 -3 8 -2 14 2 14 4 0 6 19 4 41 -3 24 0 39 5 36 9 -6
13 24 13 90 0 17 4 34 10 38 6 3 7 11 4 17 -4 6 0 14 7 19 11 7 11 9 1 9 -9 0
-10 5 -3 19 6 10 7 21 4 25 -3 3 2 16 13 28 10 12 13 18 5 13 -10 -6 -11 -2
-5 16 4 13 8 31 9 39 0 9 4 21 9 28 4 6 4 17 1 22 -3 6 -2 10 3 10 6 0 13 7
16 16 4 10 2 13 -7 8 -6 -4 -3 3 8 16 12 14 14 20 5 15 -11 -7 -10 -2 4 19 10
16 13 25 7 22 -7 -5 -9 -1 -5 8 3 9 9 16 13 16 4 0 8 9 9 20 4 44 6 50 15 50
6 0 7 3 4 7 -4 3 -1 13 6 21 10 13 9 14 -3 7 -12 -7 -13 -6 -3 7 7 8 10 18 6
21 -3 4 0 7 7 7 7 0 11 3 7 6 -3 3 3 21 14 40 12 21 14 34 7 34 -6 0 -1 12 13
27 13 14 18 23 12 19 -9 -5 -11 -2 -7 8 3 9 10 16 16 16 5 0 6 5 3 10 -4 6 3
27 14 46 12 19 21 44 21 55 0 11 4 17 10 14 6 -3 7 1 4 9 -3 9 -1 16 6 16 6 0
9 4 6 9 -4 5 -2 11 4 13 5 1 11 14 13 27 2 14 9 27 15 29 7 2 10 7 7 12 -3 5
2 16 11 24 8 9 12 16 7 16 -4 0 1 7 11 15 11 8 16 15 12 15 -4 0 -4 6 1 13 4
6 8 14 9 17 1 10 29 65 35 70 3 3 8 13 12 23 4 10 11 15 17 12 6 -3 7 1 4 9
-4 9 0 18 9 22 9 3 14 14 12 25 -2 11 0 17 6 14 5 -4 9 0 9 8 0 7 10 24 23 37
12 14 21 28 19 33 -1 4 5 10 13 13 8 3 13 10 10 14 -3 4 7 20 22 34 21 21 22
25 7 20 -18 -6 -18 -6 1 9 11 8 23 13 28 10 4 -2 7 -1 6 4 -4 21 2 34 13 27 6
-4 8 -3 4 4 -3 6 5 22 18 35 14 14 22 28 19 31 -4 3 -1 6 6 6 7 0 9 5 6 10 -3
6 2 10 11 10 10 0 15 3 11 6 -7 8 26 42 36 37 4 -3 7 -1 6 4 -3 20 2 44 9 40
4 -3 16 5 27 16 11 11 14 16 6 12 -7 -4 -3 6 9 23 13 17 27 29 32 26 4 -3 8 0
8 5 0 6 9 20 20 31 12 12 18 25 15 30 -3 6 1 7 9 4 11 -4 16 0 16 12 0 9 3 15
6 12 7 -8 54 36 54 51 0 6 6 10 13 9 6 -2 11 3 9 10 -1 6 5 12 14 12 8 0 12 5
9 10 -3 6 0 10 8 10 8 0 17 7 21 15 3 8 13 15 23 15 14 0 15 2 4 9 -11 7 -9
10 8 16 11 3 21 11 21 16 0 5 7 9 16 9 8 0 13 4 10 8 -6 10 33 45 51 48 15 3
48 34 36 34 -4 1 9 10 30 21 20 11 37 22 37 25 0 3 -6 2 -12 -2 -8 -4 -10 -3
-5 2 5 5 13 10 18 10 5 1 14 2 19 3 6 0 10 8 10 17 0 8 5 12 10 9 6 -3 10 -1
10 5 0 7 7 10 14 7 11 -4 13 -1 9 10 -4 10 -2 14 4 10 5 -3 21 4 34 16 13 12
26 22 29 22 3 0 16 10 30 23 13 12 30 22 37 22 7 0 13 5 13 10 0 6 7 10 15 10
7 0 19 8 24 18 6 9 11 13 11 9 0 -5 6 -2 14 5 38 36 56 47 57 35 0 -9 2 -9 6
1 2 6 9 10 14 6 5 -3 9 2 9 10 0 14 19 21 43 17 5 -1 6 3 3 8 -6 9 31 27 47
23 5 -1 6 2 2 8 -6 9 7 14 28 11 4 0 7 4 7 10 0 6 7 8 16 5 8 -3 12 -2 9 4 -3
6 1 10 9 10 8 0 20 8 25 18 6 10 11 12 11 4 0 -8 7 -6 21 7 12 11 30 18 40 16
11 -2 17 0 14 6 -4 5 3 9 15 9 12 0 18 4 15 10 -3 6 1 7 9 4 9 -3 16 -2 16 4
0 5 7 13 16 16 10 4 13 2 9 -7 -4 -6 0 -4 8 6 9 11 21 15 32 10 14 -5 17 -3
12 9 -4 11 0 15 11 14 9 -2 23 4 31 11 10 11 16 11 21 3 5 -8 9 -6 14 5 3 10
12 15 21 11 8 -3 15 -1 15 5 0 6 4 8 9 4 5 -3 12 -1 16 5 3 5 15 10 26 10 11
0 18 4 14 9 -3 6 6 8 21 5 17 -3 23 -1 19 6 -5 7 0 11 11 9 17 -2 62 12 87 28
6 3 7 1 3 -6 -4 -6 8 -3 27 8 26 14 38 16 46 8 8 -8 11 -7 11 6 0 10 5 14 14
11 8 -3 17 -1 20 5 4 6 14 7 23 4 11 -4 14 -3 9 5 -5 8 -2 10 9 6 8 -4 21 -2
28 3 6 5 22 8 35 7 12 0 22 2 22 6 0 5 8 7 18 5 9 -1 23 2 30 8 8 6 12 5 12
-4 1 -11 3 -10 13 2 7 9 18 14 25 11 7 -2 19 2 27 8 11 9 15 9 15 1 0 -9 5 -9
20 -1 11 6 20 8 20 4 0 -3 6 -2 13 3 6 6 21 9 32 7 10 -1 25 2 32 8 9 7 13 7
13 -2 0 -9 3 -10 13 -1 8 6 17 8 20 4 4 -3 7 -1 7 7 0 9 4 9 13 2 6 -5 21 -6
32 -2 11 4 26 5 33 3 6 -3 12 -1 12 4 0 5 7 10 15 10 8 0 15 -4 15 -8 0 -6 23
-5 40 1 3 1 8 2 13 1 4 0 7 5 7 12 0 8 4 7 10 -3 5 -8 10 -10 10 -5z"/>
<path d="M7213 7137 c-4 -8 -23 -22 -40 -32 -18 -11 -33 -25 -33 -33 0 -7 -4
-11 -8 -8 -5 3 -15 -4 -22 -15 -8 -10 -20 -19 -28 -19 -7 0 -11 -3 -9 -7 2 -5
-8 -19 -21 -33 -14 -14 -21 -18 -17 -10 5 8 -5 2 -21 -15 -16 -16 -28 -33 -26
-38 2 -4 -4 -10 -12 -13 -9 -3 -14 -10 -11 -14 3 -4 -5 -10 -16 -13 -12 -3
-18 -10 -15 -16 4 -5 -3 -12 -14 -16 -11 -3 -25 -15 -31 -26 -5 -11 -15 -16
-21 -13 -7 4 -8 3 -4 -4 4 -7 2 -12 -4 -12 -6 0 -8 -4 -5 -10 3 -5 -1 -10 -10
-10 -9 0 -14 -4 -10 -9 3 -5 -4 -12 -15 -16 -11 -3 -19 -9 -17 -13 1 -4 -1 -8
-6 -9 -13 -4 -35 -28 -31 -34 2 -4 -6 -9 -17 -12 -12 -3 -18 -10 -14 -16 6
-10 -8 -16 -28 -12 -5 1 -6 -3 -2 -9 3 -5 1 -10 -5 -10 -6 0 -8 -4 -5 -10 3
-5 -1 -10 -10 -10 -9 0 -14 -4 -10 -9 3 -5 -4 -12 -15 -16 -11 -4 -18 -11 -15
-16 4 -5 -1 -9 -10 -9 -10 0 -13 -5 -9 -12 5 -8 2 -9 -9 -5 -11 4 -17 1 -17
-7 0 -8 -7 -17 -16 -20 -8 -3 -12 -10 -9 -16 3 -5 -1 -10 -10 -10 -9 0 -13 -4
-10 -10 3 -5 0 -11 -7 -11 -7 -1 -15 -2 -18 -2 -3 0 -23 -19 -45 -41 -22 -22
-33 -36 -25 -32 8 4 4 -2 -10 -13 -14 -11 -21 -21 -17 -21 5 0 1 -7 -8 -16
-12 -13 -13 -19 -5 -24 9 -6 9 -9 -1 -13 -10 -4 -10 -6 -2 -6 9 -1 10 -8 3
-26 -6 -16 -6 -25 0 -25 6 0 10 -7 10 -16 0 -8 4 -13 9 -9 5 3 16 -2 24 -10 9
-8 22 -15 29 -15 8 0 20 -6 27 -12 11 -11 12 -10 6 1 -6 10 -4 12 6 5 19 -12
39 -14 39 -4 0 5 27 10 60 12 36 2 60 -1 60 -7 0 -5 5 -3 10 5 5 8 10 10 10 4
0 -14 32 -13 42 1 5 6 8 4 8 -5 0 -13 1 -13 10 0 9 13 11 13 20 0 5 -8 10 -10
10 -4 0 8 11 9 35 4 19 -4 35 -5 35 -1 0 11 59 5 75 -9 12 -10 15 -10 15 1 0
9 3 10 8 4 4 -6 32 -12 62 -13 30 -2 57 -7 60 -12 3 -4 17 -6 33 -5 15 2 27
-1 27 -6 0 -5 11 -4 26 1 14 6 23 6 20 1 -3 -5 1 -12 10 -15 10 -4 13 -2 8 6
-5 7 -3 8 7 2 21 -13 49 -15 49 -4 0 11 32 1 43 -14 5 -8 10 -7 16 3 7 11 9
11 14 0 4 -11 6 -11 6 -1 1 10 6 10 21 2 14 -8 20 -8 20 0 0 7 6 8 19 0 14 -7
21 -6 24 3 4 9 8 9 15 -2 8 -11 10 -11 15 0 4 11 6 11 6 1 1 -7 6 -10 11 -7 6
3 10 1 10 -5 0 -6 4 -9 9 -6 5 3 14 -1 21 -10 11 -12 15 -12 21 -2 6 9 9 9 9
1 0 -14 43 -8 48 7 2 6 7 8 12 5 4 -3 16 7 25 21 9 15 11 23 4 19 -8 -6 -10
-4 -3 6 14 24 13 36 -7 58 -11 12 -17 21 -14 21 4 0 0 7 -9 15 -8 8 -21 15
-30 15 -8 0 -18 5 -22 12 -5 7 -3 8 6 3 9 -6 11 -4 6 4 -6 9 -12 9 -25 -3 -16
-15 -19 -14 -36 4 -14 15 -21 17 -32 9 -10 -9 -13 -8 -13 0 0 9 -5 9 -20 1
-11 -6 -20 -7 -20 -1 0 12 -33 9 -42 -4 -5 -6 -8 -5 -8 4 0 11 -3 11 -15 1
-11 -9 -15 -9 -15 -1 0 7 -6 11 -12 9 -7 -1 -38 2 -68 6 -73 11 -93 12 -109 1
-10 -5 -12 -4 -7 3 5 8 -3 12 -23 12 -17 0 -31 5 -31 10 0 7 -6 7 -18 1 -10
-5 -24 -6 -30 -2 -7 4 -60 8 -119 10 -58 1 -114 6 -123 11 -11 6 -21 5 -28 -2
-9 -9 -12 -9 -12 0 0 9 -5 10 -18 3 -11 -6 -23 -5 -34 3 -16 12 -16 14 2 28
10 9 21 14 24 11 3 -4 6 1 6 10 0 10 5 18 10 18 6 1 14 2 19 3 11 1 26 15 26
24 1 18 27 51 45 57 11 3 19 9 17 13 -1 4 8 17 21 30 12 12 22 19 23 15 0 -5
4 2 10 15 5 13 13 21 18 17 5 -3 12 4 16 15 3 11 13 20 21 20 8 0 13 3 12 8
-2 4 16 26 40 50 23 23 42 39 43 35 0 -5 4 2 10 15 5 13 13 21 18 17 5 -3 12
4 16 15 3 11 13 20 21 20 8 0 13 4 12 8 -4 10 59 72 73 72 6 0 8 4 4 9 -3 6 4
15 15 21 11 6 20 18 21 28 0 10 3 12 6 5 4 -10 9 -10 25 1 11 8 27 12 34 9 10
-4 12 0 7 13 -4 10 -2 15 4 11 14 -9 42 28 33 44 -5 7 -4 21 1 30 6 12 5 20
-1 24 -6 4 -7 11 -4 17 4 6 2 8 -3 5 -6 -4 -14 0 -17 9 -3 8 -10 12 -16 9 -5
-3 -10 -1 -10 4 0 15 -63 14 -79 -1 -11 -10 -13 -10 -7 0 10 16 -1 16 -11 -1z"/>
<path d="M3300 6247 c0 -5 -8 -7 -17 -6 -26 4 -62 -22 -55 -39 3 -9 1 -13 -4
-10 -5 4 -10 -5 -10 -18 -1 -13 2 -24 6 -24 5 0 7 -9 5 -20 -2 -11 0 -18 6
-15 5 4 12 -1 15 -9 3 -9 13 -16 21 -16 8 0 12 -4 8 -9 -3 -6 3 -9 12 -9 24 1
70 -9 84 -18 7 -4 9 -3 5 4 -4 7 1 10 14 9 11 -1 20 -6 20 -12 0 -6 3 -7 8 0
8 12 46 20 39 8 -3 -4 5 -8 18 -8 13 0 21 3 19 7 -3 4 5 6 16 5 11 -1 20 -6
20 -12 0 -6 3 -7 8 0 8 12 46 20 39 8 -3 -4 5 -8 18 -8 13 0 21 3 18 8 -2 4 0
7 6 7 5 0 13 -5 16 -10 4 -6 11 -8 16 -5 18 12 49 14 49 4 0 -6 4 -8 9 -5 4 3
22 1 40 -4 22 -6 31 -5 31 3 0 7 4 6 10 -3 7 -11 10 -11 10 -2 0 8 5 10 12 6
6 -4 31 -7 55 -7 25 0 43 -4 43 -11 0 -7 3 -7 8 -1 9 13 32 17 32 6 0 -5 23
-9 52 -8 42 0 54 -4 70 -24 22 -26 21 -27 -42 -69 -13 -8 -35 -25 -50 -37 -15
-13 -31 -23 -35 -23 -3 0 -12 -6 -20 -12 -30 -29 -87 -73 -91 -70 -2 1 -13 -6
-23 -15 -36 -33 -50 -43 -60 -43 -5 0 -18 -11 -29 -25 -11 -13 -22 -22 -25
-19 -3 3 -8 -4 -12 -15 -3 -12 -11 -19 -16 -16 -5 4 -12 -1 -15 -9 -3 -9 -10
-13 -15 -10 -5 3 -9 0 -9 -6 0 -6 -5 -8 -12 -4 -6 4 -8 3 -5 -3 7 -10 -19 -35
-47 -46 -9 -4 -15 -11 -11 -17 3 -5 -6 -12 -20 -16 -13 -3 -22 -10 -19 -15 3
-5 -2 -9 -11 -9 -9 0 -19 -9 -22 -20 -3 -11 -9 -17 -14 -14 -5 3 -14 -6 -20
-20 -7 -14 -16 -23 -20 -20 -4 2 -13 -5 -19 -16 -6 -12 -16 -18 -23 -14 -7 4
-9 4 -5 -1 10 -10 -11 -37 -23 -29 -5 3 -6 -3 -2 -12 4 -11 3 -15 -5 -10 -6 3
-16 -3 -22 -14 -6 -11 -16 -17 -22 -14 -6 4 -8 3 -5 -3 4 -6 -2 -18 -13 -28
-12 -11 -17 -23 -12 -29 5 -6 9 -24 10 -39 1 -16 9 -35 18 -44 17 -17 94 -25
94 -9 0 5 3 6 6 3 8 -8 41 28 49 54 4 11 9 18 13 16 9 -5 42 30 35 36 -2 3 5
8 16 12 12 3 18 11 15 17 -4 6 -2 8 4 4 6 -3 17 0 25 8 8 8 18 12 22 8 4 -4 5
-2 3 4 -3 10 54 74 66 74 12 0 46 35 46 47 0 7 7 10 17 6 11 -4 14 -3 9 5 -6
11 5 17 26 13 5 0 7 3 5 8 -1 5 1 9 6 10 9 1 42 34 57 57 11 18 11 18 5 -1 -4
-16 -1 -14 18 8 14 15 30 27 37 27 7 0 10 6 7 13 -3 8 1 14 9 15 8 1 20 3 28
4 8 1 14 4 13 7 -3 11 30 51 36 44 4 -3 18 6 31 20 14 15 29 27 34 27 6 0 13
7 16 16 3 8 10 13 15 9 6 -3 17 7 25 22 8 15 15 24 16 20 0 -4 12 4 28 18 15
14 35 28 45 31 9 3 15 9 12 14 -3 5 4 11 15 15 11 4 18 11 15 16 -4 5 1 9 9 9
8 0 18 9 21 20 4 11 9 18 13 16 4 -2 13 2 19 10 8 8 9 15 3 19 -6 4 -3 16 6
31 9 13 12 24 8 24 -5 0 -10 12 -11 27 0 15 -6 29 -12 31 -6 2 -11 10 -11 18
0 9 -4 13 -9 10 -5 -3 -12 1 -15 10 -4 9 -9 14 -12 11 -3 -3 -17 1 -31 8 -15
8 -31 11 -36 8 -6 -3 -7 -1 -4 4 4 6 0 14 -9 17 -23 9 -26 8 -18 -6 5 -9 2 -9
-9 1 -9 7 -17 10 -17 5 0 -5 -4 -3 -9 5 -5 7 -25 14 -45 14 -20 1 -36 5 -36
10 0 4 -4 6 -9 3 -4 -3 -22 -2 -38 3 -18 5 -37 5 -48 -1 -13 -8 -16 -7 -11 1
5 8 0 10 -18 7 -14 -3 -26 -1 -26 3 0 4 -28 7 -62 6 -35 -1 -67 0 -72 3 -16 9
-106 8 -106 -1 0 -4 -6 -5 -12 0 -21 13 -50 14 -42 2 4 -8 1 -8 -12 -2 -11 5
-47 8 -81 7 -41 -1 -63 2 -63 10 0 6 -5 4 -10 -4 -6 -9 -10 -10 -10 -3 0 7
-12 10 -30 8 -17 -2 -29 -1 -26 3 2 4 -7 7 -20 7 -13 0 -24 -4 -24 -8z"/>
<path d="M6269 5062 c-2 -7 -14 -14 -27 -15 -12 0 -22 -5 -22 -10 0 -5 -9 -7
-20 -4 -11 3 -18 1 -14 -4 3 -5 0 -10 -5 -10 -14 -2 -29 -6 -36 -9 -3 -1 -9
-3 -15 -4 -5 0 -18 -9 -29 -18 -11 -9 -22 -14 -25 -11 -3 4 -6 1 -6 -6 0 -7
-4 -10 -9 -6 -5 3 -16 -1 -24 -9 -8 -8 -17 -12 -21 -9 -3 3 -12 0 -20 -6 -8
-7 -19 -10 -25 -7 -5 3 -12 -1 -15 -10 -3 -9 -12 -14 -18 -12 -7 3 -19 -1 -26
-9 -8 -7 -18 -11 -23 -8 -5 4 -9 1 -9 -5 0 -6 -4 -9 -9 -6 -5 4 -11 1 -13 -4
-2 -6 -13 -12 -26 -13 -12 0 -22 -6 -22 -11 0 -5 -3 -6 -7 -3 -3 4 -12 -1 -20
-11 -9 -10 -11 -11 -7 -2 7 13 5 13 -9 1 -9 -7 -17 -10 -17 -7 0 4 -7 1 -15
-8 -9 -8 -22 -13 -30 -10 -8 4 -15 1 -15 -4 0 -6 -9 -9 -20 -7 -11 2 -18 0
-15 -6 4 -5 1 -10 -4 -10 -12 -2 -26 -5 -38 -9 -5 -1 -11 -2 -15 -1 -5 0 -8
-4 -8 -10 0 -5 -4 -8 -9 -4 -5 3 -34 -8 -65 -24 -31 -16 -53 -23 -49 -17 4 7
1 6 -9 -1 -8 -7 -18 -10 -21 -6 -4 3 -7 1 -7 -6 0 -8 -6 -11 -16 -7 -10 4 -13
2 -8 -6 5 -7 -1 -9 -19 -6 -15 3 -24 2 -22 -2 6 -10 -20 -20 -62 -26 -20 -2
-33 0 -33 7 0 8 -5 8 -15 -1 -12 -10 -15 -10 -15 1 0 9 -3 10 -8 4 -4 -6 -17
-10 -30 -9 -12 1 -20 -1 -17 -4 8 -8 -34 -34 -45 -27 -6 3 -10 1 -10 -5 0 -6
-6 -10 -12 -8 -7 1 -23 -6 -35 -16 -17 -15 -19 -24 -13 -42 6 -15 5 -26 -2
-30 -7 -5 -8 -3 -3 6 5 9 4 11 -3 6 -9 -5 -8 -12 1 -26 6 -11 15 -20 19 -20 5
0 8 -7 8 -15 0 -8 9 -15 19 -15 11 0 22 -4 25 -8 6 -10 42 -9 52 1 11 11 26 8
19 -3 -3 -5 1 -10 9 -10 9 0 16 -7 16 -16 0 -9 5 -12 12 -8 8 5 9 2 5 -10 -4
-10 -3 -15 3 -11 6 3 10 -1 10 -9 0 -10 6 -13 17 -9 10 4 14 2 10 -4 -7 -11
102 -130 116 -125 5 1 6 -1 3 -6 -3 -5 13 -24 34 -42 21 -18 36 -38 33 -44 -3
-6 -3 -8 1 -4 10 8 56 -36 56 -53 0 -7 3 -10 6 -6 5 5 33 -16 70 -51 8 -7 14
-10 14 -7 0 4 13 -7 29 -24 16 -17 34 -31 40 -31 7 0 14 -7 17 -15 4 -8 10
-12 15 -10 4 3 14 -3 21 -15 7 -11 17 -20 22 -20 5 0 15 -8 23 -17 9 -12 12
-12 8 -3 -4 8 4 2 19 -14 14 -16 26 -26 26 -22 0 5 15 -5 34 -22 19 -17 44
-33 55 -37 12 -3 21 -11 21 -17 0 -5 7 -7 16 -4 8 3 12 2 9 -4 -6 -9 8 -14 28
-11 4 0 7 -6 7 -15 0 -8 4 -13 9 -10 5 4 11 2 13 -3 1 -5 10 -11 18 -13 8 -2
27 -16 42 -32 16 -15 28 -25 28 -21 0 4 18 -7 39 -24 21 -17 50 -31 64 -31 14
0 28 -3 30 -7 11 -18 157 -1 157 18 0 5 7 9 16 9 8 0 13 4 10 9 -3 5 1 11 9
15 8 3 15 12 15 21 0 8 4 15 9 15 10 0 34 61 26 68 -3 3 0 11 6 18 6 8 12 36
14 64 1 28 5 54 9 57 3 3 1 14 -5 24 -5 11 -6 19 -2 19 4 0 9 11 9 25 1 16 -2
22 -10 18 -7 -4 -7 -2 1 8 10 12 10 18 1 27 -7 7 -8 12 -2 12 12 0 12 78 1 98
-5 6 -5 18 0 25 14 22 14 49 1 41 -8 -5 -8 -1 1 10 13 15 13 19 0 27 -8 5 -9
9 -4 9 12 0 13 69 2 87 -4 6 -3 14 1 17 11 7 9 46 -2 65 -5 7 -5 16 1 20 11 7
11 81 -1 99 -4 7 -3 19 4 27 8 9 8 15 0 20 -7 4 -8 11 -1 18 16 20 16 23 1 42
-8 11 -10 16 -3 11 9 -5 12 0 11 18 -1 15 -5 26 -8 26 -3 0 -6 9 -7 20 -1 11
3 20 9 20 7 0 7 4 -1 13 -7 10 -7 17 0 24 7 7 8 17 3 25 -10 15 -16 43 -17 76
-1 12 -5 22 -9 22 -4 0 -8 5 -8 11 0 5 5 7 11 4 13 -8 -12 37 -26 47 -5 4 -6
8 -1 8 5 0 -3 9 -18 21 -14 11 -26 27 -26 35 0 8 -9 14 -19 14 -11 0 -23 5
-26 10 -5 8 -11 7 -21 -1 -11 -9 -14 -8 -14 2 0 12 -2 12 -9 0 -7 -10 -10 -10
-13 -1 -3 10 -9 10 -25 2 -16 -9 -22 -9 -26 1 -3 9 -5 9 -8 -1z m68 -185 c9
-5 9 -15 3 -32 -6 -15 -6 -27 0 -30 6 -3 8 -24 6 -46 -2 -21 0 -42 6 -45 5 -3
5 -11 0 -17 -7 -10 -9 -32 -2 -39 5 -7 4 -256 -1 -252 -3 1 -6 -3 -6 -11 0 -8
4 -12 9 -9 10 6 10 6 -1 -34 -6 -18 -6 -30 -2 -27 5 2 9 -6 9 -20 0 -14 -4
-23 -8 -20 -6 3 -6 -30 0 -45 6 -13 4 -36 -2 -41 -4 -3 -4 -19 1 -37 7 -21 6
-34 -1 -38 -7 -5 -8 -2 -3 6 5 8 4 11 -3 6 -6 -4 -9 -13 -6 -21 4 -8 11 -12
18 -8 8 5 8 3 1 -8 -6 -8 -11 -53 -10 -101 0 -49 -3 -88 -7 -88 -4 0 -5 -7 -2
-15 4 -9 0 -15 -7 -15 -12 0 -12 -2 0 -9 9 -6 10 -10 2 -16 -9 -5 -9 -10 0
-21 8 -10 8 -14 0 -14 -6 0 -10 -3 -9 -7 4 -20 -15 -40 -33 -36 -10 3 -19 9
-19 14 0 5 -3 8 -7 8 -21 -3 -33 2 -27 13 4 7 3 8 -4 4 -12 -7 -22 -1 -66 41
-13 12 -27 19 -30 16 -3 -4 -6 0 -6 7 0 7 -3 11 -6 7 -6 -6 -16 1 -52 33 -9 8
-24 15 -32 15 -8 0 -14 6 -13 12 2 7 0 12 -5 12 -22 -4 -42 2 -37 11 3 6 0 10
-7 10 -8 0 -21 8 -30 18 -28 29 -46 41 -52 35 -3 -4 -6 -1 -6 5 0 6 -9 14 -20
17 -11 4 -18 11 -15 16 4 5 -3 9 -14 9 -11 0 -28 11 -39 25 -14 17 -22 21 -25
13 -3 -8 -6 -6 -6 5 -1 9 -7 17 -15 17 -8 0 -18 9 -21 20 -4 11 -10 18 -15 15
-5 -3 -15 4 -23 15 -7 11 -16 17 -19 14 -4 -3 -9 3 -12 13 -3 10 -19 27 -35
38 -16 10 -27 23 -25 27 3 4 -3 5 -12 1 -12 -4 -15 -3 -10 5 4 7 3 12 -2 12
-15 0 -72 56 -72 71 0 7 -3 10 -6 6 -8 -8 -47 29 -42 40 5 8 -27 43 -38 42 -4
0 -12 11 -20 26 -7 14 -9 23 -4 20 6 -4 10 -2 10 3 0 5 6 9 13 10 6 0 26 4 42
7 17 4 35 8 42 8 7 0 11 4 10 8 -1 4 1 6 4 5 4 0 16 8 28 18 12 11 21 14 21 8
0 -7 5 -12 11 -12 5 0 7 5 3 12 -5 7 0 9 14 6 12 -3 20 -1 19 4 -2 9 18 17 51
20 6 1 12 6 12 11 0 5 9 7 20 4 12 -3 18 -1 14 5 -4 6 -1 9 7 6 8 -3 20 2 28
9 7 8 19 12 26 9 8 -3 16 2 19 10 3 9 10 12 16 9 5 -3 10 -2 10 4 0 5 9 8 20
6 11 -2 18 0 15 6 -4 5 -1 10 4 10 14 2 29 6 36 9 3 1 10 4 15 5 6 1 12 3 15
4 3 0 6 0 8 -1 2 -2 11 5 21 15 10 9 26 17 37 17 10 0 19 4 19 10 0 5 16 12
35 16 19 3 32 10 29 15 -3 5 2 6 10 3 9 -3 16 -1 16 5 0 6 8 11 18 11 10 0 23
5 30 12 7 7 12 9 12 4 0 -4 7 0 16 9 9 9 23 14 30 11 8 -3 14 0 15 7 0 9 2 8
6 -1 4 -10 9 -9 20 5 9 11 12 12 8 3 -3 -8 1 -6 9 5 16 21 51 27 73 12z"/>
<path d="M6317 4869 c7 -7 15 -10 18 -7 3 3 -2 9 -12 12 -14 6 -15 5 -6 -5z"/>
<path d="M6440 5026 c0 -2 8 -10 18 -17 15 -13 16 -12 3 4 -13 16 -21 21 -21
13z"/>
<path d="M6730 1679 c0 -6 -4 -8 -9 -4 -5 3 -12 1 -16 -5 -4 -6 -11 -8 -16 -5
-5 4 -9 1 -9 -5 0 -6 -4 -9 -9 -6 -5 3 -14 -1 -21 -9 -9 -11 -17 -12 -31 -4
-15 7 -21 6 -25 -4 -3 -10 -17 -14 -40 -12 -19 1 -37 -2 -40 -6 -2 -4 -20 -7
-39 -5 -19 1 -32 -1 -29 -6 3 -4 -9 -6 -25 -4 -17 2 -33 1 -37 -3 -6 -6 -44
-10 -139 -14 -33 -1 -66 -7 -74 -11 -10 -7 -12 -5 -6 3 5 10 3 11 -11 4 -18
-9 -135 -14 -394 -16 -60 -1 -108 -6 -112 -12 -5 -7 -8 -7 -8 0 0 14 -38 17
-46 4 -4 -6 -10 -6 -19 1 -15 12 -36 10 -47 -5 -5 -6 -8 -6 -8 1 0 13 -48 13
-69 0 -10 -6 -12 -5 -7 2 9 14 -46 11 -56 -3 -5 -6 -8 -5 -8 2 0 14 -26 13
-49 -1 -9 -6 -12 -5 -7 2 4 7 -5 10 -29 8 -19 -2 -37 0 -40 4 -2 4 -16 5 -30
2 -19 -3 -30 1 -40 16 -14 19 -95 37 -95 20 0 -3 -8 -9 -18 -12 -23 -8 -49
-54 -46 -83 1 -13 2 -29 3 -37 0 -8 11 -18 22 -21 17 -6 19 -9 8 -16 -11 -7
-10 -9 4 -9 9 0 20 0 23 1 4 0 10 -4 14 -11 4 -6 17 -12 28 -13 12 -1 22 -5
22 -9 0 -5 9 -4 19 2 12 6 22 6 26 1 3 -5 21 -8 40 -6 22 2 33 -1 29 -7 -4 -6
2 -5 14 1 27 14 35 14 26 -1 -6 -10 -4 -10 7 0 16 15 33 16 23 0 -4 -6 -3 -8
3 -5 19 12 94 16 87 5 -5 -7 -2 -8 6 -3 18 11 160 13 153 2 -3 -5 4 -4 15 2
27 14 35 14 26 -1 -4 -7 -3 -8 4 -4 21 13 122 14 115 2 -3 -6 0 -5 8 2 16 14
33 16 24 2 -4 -6 4 -6 22 1 15 5 24 7 20 3 -3 -4 1 -13 11 -20 9 -8 12 -14 5
-14 -7 0 -10 -9 -8 -22 3 -12 0 -27 -6 -35 -6 -7 -9 -28 -7 -47 2 -19 1 -33
-2 -31 -4 2 -6 -31 -4 -73 1 -50 -2 -80 -9 -84 -8 -5 -8 -8 -1 -8 10 0 14 -30
17 -112 0 -16 5 -28 10 -28 5 0 7 -6 4 -14 -3 -7 0 -19 6 -26 9 -10 9 -11 -3
-5 -12 7 -11 4 2 -11 9 -10 18 -23 20 -29 2 -5 7 -9 12 -7 5 2 6 -5 2 -14 -4
-11 0 -18 14 -21 11 -3 17 -9 14 -14 -5 -8 17 -14 39 -10 4 0 7 -4 7 -10 0 -8
5 -8 15 1 12 10 15 10 15 0 0 -9 3 -10 13 -1 8 6 18 7 22 3 5 -4 5 -1 1 6 -4
7 -1 12 9 12 9 0 14 4 11 9 -3 5 1 12 10 15 11 4 13 10 7 19 -11 14 -11 27 1
46 5 8 5 12 0 9 -10 -7 -27 11 -32 32 -2 8 -8 16 -13 18 -5 2 -9 12 -9 22 0
10 -4 21 -8 24 -9 6 -8 48 2 64 4 7 3 12 -2 12 -12 0 -10 43 3 52 6 5 6 8 -2
8 -6 0 -11 9 -10 20 1 11 6 20 11 20 6 0 5 5 -2 12 -14 14 -16 32 -2 23 6 -3
7 1 4 9 -3 9 -11 13 -18 10 -6 -3 -2 2 9 11 22 18 23 24 3 36 -11 7 -11 9 1 9
7 0 11 6 8 15 -4 8 -2 17 4 20 5 4 7 11 4 16 -4 5 5 14 19 20 14 7 23 16 20
20 -3 5 0 9 6 9 6 0 8 5 5 10 -3 6 -1 10 4 10 6 0 10 3 10 8 -3 19 2 26 10 13
8 -12 12 -12 25 -2 12 11 16 11 16 1 0 -10 3 -10 15 0 11 9 15 9 15 1 0 -9 5
-9 21 -1 25 14 120 19 112 7 -3 -5 1 -13 8 -18 9 -5 10 -9 2 -9 -6 0 -10 -8
-8 -17 1 -10 -2 -23 -7 -30 -5 -7 -5 -14 1 -17 6 -4 8 -12 6 -19 -2 -7 -6 -27
-9 -45 -4 -25 -3 -31 7 -26 7 5 7 1 -2 -10 -18 -21 -24 -66 -9 -66 7 0 6 -5
-1 -14 -6 -8 -10 -30 -8 -50 3 -21 0 -36 -6 -36 -6 0 -7 -3 -4 -6 3 -4 2 -16
-4 -27 -9 -15 -8 -18 3 -11 11 6 11 5 0 -8 -9 -11 -10 -18 -2 -23 7 -4 7 -13
-1 -27 -8 -15 -8 -19 0 -14 6 4 11 1 11 -8 0 -8 13 -20 29 -27 16 -7 27 -17
24 -22 -3 -5 9 -1 26 8 17 9 37 13 44 9 7 -4 9 -4 5 1 -4 4 2 21 13 37 12 16
19 38 16 48 -3 11 0 20 6 20 8 0 7 4 -2 9 -7 5 -9 10 -3 12 5 2 13 15 17 28 6
18 4 22 -6 15 -12 -6 -12 -5 -1 8 9 11 10 18 2 23 -6 4 -7 12 -1 24 5 9 8 29
7 44 -2 15 1 30 5 33 5 3 4 14 -1 25 -8 13 -7 19 0 19 6 0 8 5 5 10 -3 6 -1
10 6 10 8 0 8 4 -1 15 -7 8 -8 15 -3 15 4 0 8 18 7 40 0 22 3 40 8 40 5 0 7 4
3 9 -3 5 -1 12 5 16 6 4 8 11 5 16 -4 5 1 16 9 25 12 12 16 12 16 2 0 -8 3 -9
8 -3 4 6 19 10 35 10 15 -1 27 3 27 8 0 4 5 5 10 2 6 -3 10 0 10 7 0 10 3 9 9
-1 8 -12 12 -12 25 -2 9 8 16 10 16 5 0 -4 7 1 16 12 8 10 13 13 9 6 -4 -8 1
-11 17 -8 13 3 29 5 36 5 7 1 10 6 7 12 -4 6 -1 9 6 8 20 -3 62 16 78 35 7 9
19 16 26 16 7 0 15 14 17 30 3 17 1 30 -3 30 -4 0 -6 8 -4 19 2 11 -7 28 -21
40 -15 13 -24 16 -24 8 0 -8 -3 -8 -8 -2 -9 14 -52 17 -52 4z"/>
<path d="M5446 979 c2 -4 -1 -13 -8 -21 -7 -7 -14 -18 -15 -23 -1 -6 -5 -18
-8 -27 -4 -11 -3 -18 4 -18 6 0 11 -6 11 -13 0 -19 24 -67 33 -67 5 0 6 -4 2
-9 -3 -5 1 -16 9 -24 8 -8 12 -17 9 -21 -4 -3 -1 -6 6 -6 8 0 11 -6 7 -16 -3
-8 -2 -13 3 -10 5 3 15 -2 22 -11 12 -14 12 -16 -1 -9 -8 4 -6 -1 5 -11 12
-10 27 -30 35 -45 7 -16 17 -28 22 -28 5 0 7 -4 4 -9 -3 -4 3 -16 14 -26 11
-10 17 -22 13 -28 -4 -6 0 -8 11 -4 9 4 15 3 12 -2 -3 -5 1 -14 9 -21 8 -7 15
-19 15 -26 0 -8 7 -14 16 -14 8 0 12 -4 9 -10 -3 -5 -1 -10 5 -10 6 0 22 -11
36 -25 14 -14 29 -23 34 -20 5 3 12 0 16 -6 5 -8 2 -10 -7 -5 -8 4 -5 0 5 -8
11 -9 24 -16 29 -16 4 0 5 -4 2 -10 -3 -5 0 -7 8 -4 8 3 21 -2 30 -10 8 -8 17
-12 21 -9 3 4 6 1 6 -6 0 -8 7 -10 21 -6 15 5 19 4 15 -4 -5 -7 2 -11 18 -11
14 0 26 -5 26 -11 0 -6 9 -9 20 -6 11 3 20 1 20 -5 0 -5 6 -8 13 -5 6 2 22 0
35 -4 15 -6 21 -5 17 1 -8 12 -3 12 28 1 13 -5 30 -6 37 -1 7 5 24 4 37 -1 16
-6 22 -5 18 1 -8 13 1 13 25 0 13 -7 21 -7 26 2 5 7 3 8 -6 3 -8 -5 -11 -4 -6
3 3 6 18 9 31 6 14 -2 25 0 25 5 0 6 9 8 20 6 11 -2 20 0 20 5 0 5 9 7 20 5
11 -2 20 1 20 6 0 6 4 8 8 5 5 -3 21 1 36 9 18 10 25 11 21 2 -4 -7 -1 -5 7 3
7 8 20 16 28 18 8 2 18 8 21 14 3 5 8 9 10 8 10 -3 38 13 34 20 -2 4 6 7 18 6
26 -2 47 14 39 29 -3 6 -2 7 3 3 4 -4 14 -3 22 3 7 6 13 9 13 5 0 -3 9 3 20
14 12 12 26 18 33 14 7 -4 9 -4 5 1 -8 9 31 42 44 37 5 -1 7 3 5 10 -1 6 9 17
23 25 14 7 24 18 22 24 -1 6 2 8 8 4 5 -3 10 -1 10 5 0 6 5 8 10 5 6 -3 10 1
10 10 0 9 5 13 10 10 6 -3 10 1 10 9 0 9 5 16 11 16 6 0 8 7 5 16 -3 9 -2 12
5 9 5 -4 15 7 22 24 6 17 15 31 19 31 4 0 8 13 8 29 0 16 6 32 13 34 10 4 10
6 0 6 -7 1 -13 8 -13 16 0 19 -31 55 -47 55 -7 0 -13 6 -13 13 0 8 -3 9 -8 1
-4 -6 -15 -10 -24 -8 -10 1 -18 -2 -18 -7 0 -5 -7 -9 -15 -9 -14 0 -20 -12
-16 -33 1 -5 -2 -6 -6 -4 -12 7 -30 -17 -27 -36 1 -9 -2 -15 -7 -11 -5 3 -9 0
-9 -5 0 -14 -43 -57 -52 -54 -5 2 -8 -2 -8 -8 0 -6 -7 -17 -15 -25 -8 -9 -15
-13 -15 -9 0 4 -7 0 -15 -7 -8 -7 -20 -17 -27 -23 -7 -5 -22 -17 -33 -25 -17
-13 -18 -13 -11 0 5 8 -2 4 -15 -10 -13 -14 -31 -26 -39 -28 -8 -2 -17 -8 -18
-13 -2 -5 -7 -7 -12 -4 -5 3 -15 -2 -24 -11 -9 -8 -25 -16 -36 -17 -11 -1 -20
-5 -20 -10 0 -4 -4 -5 -10 -2 -5 3 -10 2 -10 -4 0 -5 -9 -8 -20 -6 -11 2 -18
0 -15 -4 2 -5 -13 -11 -36 -15 -28 -4 -38 -10 -33 -19 6 -9 4 -9 -8 0 -8 7
-18 10 -22 6 -4 -4 -35 -8 -69 -10 -34 -2 -68 -5 -75 -8 -8 -3 -10 0 -6 7 5 7
2 9 -9 5 -9 -3 -18 -1 -21 6 -3 9 -5 9 -5 0 -1 -15 -71 15 -71 29 0 5 -4 6
-10 3 -5 -3 -10 -3 -10 2 0 4 -23 23 -50 42 -28 19 -50 38 -50 43 0 4 -6 8
-14 8 -18 0 -58 49 -50 61 3 5 -3 6 -12 2 -10 -3 -15 -2 -12 3 7 11 -17 35
-26 26 -4 -3 -4 1 0 11 4 11 1 17 -7 17 -7 0 -10 3 -6 6 3 3 -4 17 -16 31 -12
13 -22 30 -22 36 -1 7 -7 11 -14 9 -8 -2 -11 3 -8 11 3 8 -3 24 -14 35 -10 12
-19 26 -19 32 0 5 -5 10 -11 10 -5 0 -8 4 -4 9 3 5 1 12 -5 16 -6 4 -8 11 -5
16 4 5 1 9 -5 9 -6 0 -8 5 -5 10 3 6 -1 10 -9 10 -9 0 -16 5 -16 11 0 6 -22 9
-55 8 -30 -1 -52 -6 -49 -10z"/>
</g>
</svg>
